<svg width="295" height="231" viewBox="0 0 295 231" fill="none" xmlns="http://www.w3.org/2000/svg">
<path d="M22.2168 51.4913C22.3972 52.2146 22.2985 52.828 21.9208 53.3314C21.5431 53.8349 20.9168 54.1957 20.0419 54.4138L19.3217 54.5934L19.9679 57.1849L18.8356 57.4672L17.1085 50.5406L19.1031 50.0433C19.9685 49.8276 20.6601 49.843 21.1779 50.0897C21.6988 50.3355 22.0451 50.8027 22.2168 51.4913ZM19.0843 53.6411L19.686 53.4911C20.2672 53.3462 20.6684 53.1388 20.8896 52.8689C21.1108 52.599 21.1679 52.2493 21.0608 51.8198C20.9615 51.4218 20.7659 51.1552 20.4739 51.02C20.1818 50.8848 19.7784 50.8814 19.2636 51.0098L18.4771 51.2059L19.0843 53.6411ZM29.067 52.1234C29.2804 52.9794 29.2275 53.7021 28.9081 54.2917C28.5888 54.8812 28.0375 55.2737 27.2542 55.469C26.7646 55.591 26.3043 55.5884 25.8733 55.461C25.4423 55.3336 25.0742 55.0882 24.7689 54.7248C24.4636 54.3615 24.2428 53.9066 24.1065 53.3602C23.8947 52.5105 23.9472 51.7929 24.2642 51.2073C24.5812 50.6217 25.136 50.2301 25.9288 50.0324C26.6869 49.8434 27.348 49.9386 27.9123 50.3179C28.4758 50.6941 28.8607 51.2959 29.067 52.1234ZM25.2531 53.0743C25.5547 54.284 26.1525 54.7774 27.0463 54.5546C27.9307 54.3341 28.2221 53.619 27.9205 52.4093C27.622 51.2122 27.0274 50.7247 26.1367 50.9468C25.6692 51.0633 25.3683 51.3027 25.2338 51.665C25.1025 52.0265 25.109 52.4963 25.2531 53.0743ZM33.1458 53.0439C33.4175 52.9762 33.6785 52.8659 33.9288 52.7128L34.1379 53.5514C34.0281 53.6358 33.8796 53.7198 33.6925 53.8034C33.5093 53.8893 33.3134 53.9583 33.105 54.0103C32.05 54.2733 31.3839 53.8489 31.1067 52.7371L30.4027 49.9134L29.6873 50.0918L29.5644 49.599L30.2303 49.0002L30.3329 47.7971L31.0199 47.6258L31.3105 48.7913L32.8029 48.4192L33.0132 49.2625L31.5208 49.6346L32.2201 52.4394C32.2871 52.7078 32.403 52.8903 32.5679 52.9867C32.7353 53.0792 32.9279 53.0983 33.1458 53.0439ZM37.9134 52.8114C37.0985 53.0146 36.4014 52.9368 35.8222 52.578C35.2453 52.2152 34.8529 51.6169 34.6449 50.7831C34.4315 49.9271 34.477 49.2012 34.7813 48.6053C35.0856 48.0094 35.6105 47.6186 36.3559 47.4327C37.0476 47.2603 37.6464 47.3341 38.1523 47.6542C38.6582 47.9742 39.0029 48.5022 39.1864 49.2382L39.3364 49.8399L35.8447 50.7104C35.9872 51.215 36.2223 51.5724 36.5498 51.7826C36.8765 51.9897 37.2752 52.0345 37.7458 51.9172C38.0554 51.84 38.3357 51.7399 38.5868 51.6169C38.8403 51.49 39.1034 51.3204 39.3759 51.1082L39.6015 52.0131C39.3622 52.2104 39.1102 52.3705 38.8456 52.4935C38.5811 52.6164 38.2703 52.7224 37.9134 52.8114ZM36.5662 48.2761C36.2124 48.3643 35.9561 48.5473 35.7973 48.8251C35.6416 49.1021 35.5967 49.4605 35.6628 49.9003L38.0411 49.3073C37.9269 48.8762 37.7412 48.5752 37.4839 48.4045C37.2259 48.2307 36.92 48.1879 36.5662 48.2761ZM46.19 50.6473L45.0719 50.926L44.2686 47.7044C44.1678 47.3001 44.0105 47.0189 43.7966 46.8609C43.5859 46.702 43.3037 46.6667 42.9499 46.7549C42.4793 46.8723 42.1697 47.0971 42.0211 47.4294C41.8724 47.7616 41.8796 48.2547 42.0426 48.9085L42.6935 51.519L41.5802 51.7966L40.2736 46.5566L41.1454 46.3393L41.473 46.9873L41.5299 46.9731C41.6256 46.6842 41.8018 46.4356 42.0585 46.2274C42.3152 46.0191 42.6205 45.8709 42.9742 45.7827C44.2313 45.4693 45.0193 45.9522 45.3383 47.2313L46.19 50.6473ZM49.8785 48.8722C50.1502 48.8044 50.4112 48.6941 50.6615 48.5411L50.8706 49.3797C50.7608 49.4641 50.6124 49.5481 50.4252 49.6316C50.242 49.7176 50.0461 49.7865 49.8377 49.8385C48.7827 50.1015 48.1166 49.6771 47.8394 48.5653L47.1354 45.7416L46.42 45.92L46.2971 45.4273L46.963 44.8285L47.0656 43.6253L47.7526 43.454L48.0432 44.6195L49.5356 44.2475L49.7459 45.0908L48.2535 45.4629L48.9528 48.2676C49.0198 48.5361 49.1357 48.7185 49.3007 48.815C49.468 48.9074 49.6606 48.9265 49.8785 48.8722ZM53.4475 48.8378L52.3342 49.1154L51.0276 43.8755L52.141 43.5979L53.4475 48.8378ZM50.6152 42.5038C50.5656 42.3049 50.5811 42.1383 50.6617 42.0041C50.7455 41.8692 50.8884 41.7765 51.0906 41.7261C51.2864 41.6773 51.4514 41.6932 51.5856 41.7738C51.7229 41.8536 51.8164 41.993 51.866 42.192C51.9132 42.3815 51.8954 42.5453 51.8124 42.6834C51.7318 42.8176 51.5935 42.9091 51.3977 42.9579C51.1956 43.0083 51.0258 42.9936 50.8885 42.9138C50.7535 42.83 50.6624 42.6933 50.6152 42.5038ZM58.7108 47.5256L58.3062 46.8515L58.2683 46.861C58.0952 47.243 57.8953 47.5243 57.6686 47.7049C57.4411 47.8824 57.1268 48.0212 56.7256 48.1212C56.2108 48.2496 55.7734 48.211 55.4136 48.0055C55.0568 47.7992 54.8151 47.4418 54.6883 46.9333C54.5536 46.3932 54.6526 45.9357 54.9852 45.5609C55.3178 45.1861 55.8916 44.8837 56.7065 44.6537L57.6043 44.3997L57.5346 44.1201C57.4511 43.7853 57.31 43.5555 57.1111 43.4306C56.9146 43.3018 56.6521 43.2784 56.3236 43.3603C56.0551 43.4272 55.8076 43.5308 55.5809 43.6712C55.3542 43.8116 55.1405 43.9639 54.9399 44.1279L54.3814 43.4218C54.6286 43.2025 54.9118 43.0128 55.2308 42.8527C55.5491 42.6895 55.8583 42.5705 56.1583 42.4956C56.8248 42.3295 57.3632 42.3496 57.7736 42.5559C58.1872 42.7614 58.4716 43.1753 58.6267 43.7975L59.5068 47.3272L58.7108 47.5256ZM56.8636 47.181C57.2679 47.0802 57.5637 46.8874 57.751 46.6025C57.9406 46.3136 57.9847 45.9655 57.8831 45.558L57.7697 45.1032L57.104 45.2994C56.5844 45.449 56.2243 45.6328 56.0236 45.8505C55.8253 46.0644 55.7663 46.3324 55.8467 46.6545C55.9049 46.8883 56.0197 47.0526 56.191 47.1474C56.3614 47.2391 56.5857 47.2503 56.8636 47.181ZM62.5623 46.5654L61.4489 46.843L59.6108 39.471L60.7242 39.1934L62.5623 46.5654ZM69.4705 40.8524L72.0194 40.2169L72.8865 43.6945C72.5035 43.9342 72.1264 44.1306 71.7552 44.2835C71.3872 44.4356 70.9805 44.5672 70.5352 44.6782C69.4865 44.9397 68.6008 44.8317 67.8779 44.3544C67.1542 43.8739 66.6514 43.0683 66.3694 41.9376C66.0914 40.8226 66.1947 39.871 66.6791 39.0826C67.1628 38.291 67.9669 37.755 69.0913 37.4747C69.8146 37.2944 70.5346 37.2625 71.2514 37.379L71.0886 38.421C70.4618 38.3022 69.8673 38.3129 69.305 38.453C68.5659 38.6373 68.0395 39.0151 67.7257 39.5865C67.4119 40.1579 67.3554 40.8463 67.5563 41.6518C67.7673 42.4982 68.1206 43.0945 68.6162 43.4407C69.1142 43.7828 69.7264 43.8634 70.4529 43.6822C70.8193 43.5909 71.1995 43.4474 71.5936 43.2519L71.1482 41.4658L69.7127 41.8237L69.4705 40.8524ZM78.1721 42.6736L77.7675 41.9995L77.7296 42.0089C77.5565 42.3909 77.3566 42.6722 77.1299 42.8529C76.9024 43.0304 76.5881 43.1691 76.1869 43.2691C75.6721 43.3975 75.2347 43.3589 74.8749 43.1534C74.5181 42.9471 74.2764 42.5897 74.1496 42.0812C74.0149 41.5411 74.1139 41.0837 74.4465 40.7089C74.7791 40.3341 75.3529 40.0317 76.1678 39.8016L77.0656 39.5476L76.9959 39.2681C76.9125 38.9333 76.7713 38.7034 76.5724 38.5786C76.3759 38.4498 76.1134 38.4263 75.7849 38.5082C75.5164 38.5751 75.2689 38.6788 75.0422 38.8192C74.8155 38.9596 74.6018 39.1118 74.4012 39.2759L73.8427 38.5697C74.0899 38.3504 74.3731 38.1607 74.6921 38.0006C75.0104 37.8374 75.3196 37.7184 75.6196 37.6436C76.2861 37.4774 76.8245 37.4975 77.2349 37.7038C77.6485 37.9094 77.9329 38.3233 78.088 38.9455L78.9681 42.4751L78.1721 42.6736ZM76.3249 42.3289C76.7292 42.2281 77.025 42.0353 77.2123 41.7504C77.4019 41.4616 77.446 41.1134 77.3444 40.706L77.231 40.2512L76.5653 40.4473C76.0457 40.597 75.6856 40.7807 75.4849 40.9985C75.2866 41.2123 75.2276 41.4803 75.308 41.8025C75.3662 42.0362 75.481 42.2005 75.6523 42.2954C75.8227 42.387 76.047 42.3982 76.3249 42.3289ZM82.0236 41.7133L80.9102 41.9909L79.6037 36.7509L80.7171 36.4734L82.0236 41.7133ZM79.1912 35.3793C79.1416 35.1803 79.1571 35.0138 79.2377 34.8796C79.3215 34.7446 79.4645 34.652 79.6666 34.6016C79.8624 34.5528 80.0274 34.5686 80.1616 34.6493C80.2989 34.7291 80.3924 34.8685 80.442 35.0675C80.4893 35.257 80.4714 35.4208 80.3884 35.5589C80.3078 35.6931 80.1696 35.7846 79.9737 35.8334C79.7716 35.8838 79.6019 35.8691 79.4645 35.7892C79.3296 35.7055 79.2385 35.5688 79.1912 35.3793ZM88.6182 40.0692L87.5001 40.3479L86.6968 37.1263C86.596 36.722 86.4387 36.4408 86.2248 36.2828C86.0141 36.1239 85.7319 36.0886 85.3781 36.1768C84.9075 36.2942 84.5979 36.519 84.4492 36.8513C84.3006 37.1835 84.3078 37.6766 84.4708 38.3304L85.1217 40.9409L84.0083 41.2185L82.7018 35.9785L83.5736 35.7612L83.9012 36.4092L83.958 36.395C84.0538 36.1061 84.23 35.8575 84.4867 35.6493C84.7434 35.441 85.0486 35.2928 85.4024 35.2046C86.6595 34.8912 87.4475 35.3741 87.7665 36.6532L88.6182 40.0692ZM93.7036 37.2161C93.8312 37.7278 93.7429 38.1675 93.4387 38.5352C93.1337 38.8998 92.6338 39.1687 91.9389 39.3419C91.2409 39.5159 90.6539 39.5499 90.1779 39.4438L89.9381 38.482C90.6249 38.6127 91.2336 38.6119 91.7642 38.4796C92.4496 38.3088 92.7407 38.0164 92.6376 37.6027C92.6045 37.47 92.539 37.3689 92.4412 37.2994C92.3433 37.2298 92.1957 37.1694 91.9984 37.1179C91.801 37.0665 91.5326 37.0193 91.1932 36.9765C90.5316 36.8931 90.0643 36.7614 89.7912 36.5812C89.5213 36.4002 89.3399 36.1234 89.247 35.7507C89.1352 35.3022 89.2286 34.9099 89.5272 34.5737C89.8282 34.2337 90.2898 33.9861 90.9121 33.8309C91.528 33.6774 92.1418 33.6568 92.7536 33.7693L92.6027 34.6977C91.979 34.6049 91.4745 34.6066 91.0892 34.7026C90.5017 34.8491 90.2497 35.0897 90.3332 35.4245C90.3741 35.5888 90.4846 35.7089 90.6645 35.7848C90.8476 35.8599 91.2214 35.9328 91.7859 36.0034C92.2603 36.0629 92.6128 36.1377 92.8433 36.2279C93.0738 36.318 93.2592 36.4429 93.3997 36.6025C93.5393 36.7589 93.6406 36.9634 93.7036 37.2161Z" fill="#7B7D7E"/>
<path d="M274.159 4.00029L263.059 0.817427L265.853 12.0214L274.159 4.00029ZM18.2419 68.8355L265.668 7.1478L265.184 5.20721L17.7581 66.8949L18.2419 68.8355Z" fill="#C6C7C8"/>
<path d="M23.1208 171.649C23.0196 172.388 22.7002 172.921 22.1625 173.248C21.6249 173.575 20.9094 173.677 20.016 173.555L19.2807 173.454L18.9182 176.1L17.762 175.942L18.7309 168.869L20.7675 169.148C21.6512 169.269 22.2876 169.541 22.6767 169.962C23.0691 170.384 23.2171 170.946 23.1208 171.649ZM19.4139 172.482L20.0283 172.566C20.6217 172.647 21.0712 172.604 21.3768 172.435C21.6825 172.267 21.8653 171.963 21.9254 171.525C21.9811 171.118 21.8985 170.798 21.6775 170.564C21.4566 170.33 21.0833 170.177 20.5576 170.105L19.7545 169.995L19.4139 172.482ZM29.2463 174.78C29.1266 175.654 28.809 176.305 28.2935 176.734C27.7781 177.163 27.1205 177.323 26.3206 177.213C25.8208 177.145 25.3944 176.971 25.0415 176.693C24.6887 176.414 24.438 176.05 24.2894 175.599C24.1409 175.148 24.1049 174.644 24.1813 174.086C24.3001 173.219 24.6154 172.572 25.1272 172.146C25.639 171.72 26.2996 171.562 27.1091 171.673C27.8832 171.779 28.4617 172.113 28.8447 172.675C29.2282 173.233 29.3621 173.935 29.2463 174.78ZM25.352 174.246C25.1828 175.482 25.5545 176.162 26.4672 176.287C27.3703 176.411 27.9064 175.855 28.0756 174.62C28.243 173.397 27.872 172.724 26.9625 172.599C26.4852 172.534 26.1169 172.644 25.8575 172.931C25.6014 173.218 25.4328 173.656 25.352 174.246ZM32.6916 177.149C32.9689 177.187 33.2522 177.182 33.5415 177.133L33.4242 177.989C33.2909 178.026 33.1219 178.049 32.9171 178.057C32.715 178.069 32.5076 178.06 32.2947 178.031C31.2176 177.884 30.7567 177.242 30.9122 176.107L31.3072 173.224L30.5767 173.124L30.6457 172.621L31.4863 172.312L32.0284 171.233L32.7299 171.329L32.5669 172.519L34.0907 172.728L33.9728 173.589L32.4489 173.38L32.0566 176.244C32.019 176.518 32.0589 176.731 32.1763 176.882C32.2973 177.03 32.469 177.119 32.6916 177.149ZM37.2046 178.704C36.3725 178.59 35.7542 178.259 35.3496 177.71C34.9486 177.159 34.8065 176.458 34.9231 175.607C35.0429 174.733 35.3547 174.076 35.8585 173.635C36.3624 173.195 36.9949 173.027 37.756 173.131C38.4623 173.228 38.9909 173.519 39.3417 174.004C39.6925 174.489 39.8165 175.107 39.7135 175.859L39.6294 176.473L36.064 175.985C36.009 176.506 36.0945 176.925 36.3205 177.242C36.547 177.556 36.9005 177.746 37.381 177.811C37.6971 177.855 37.9946 177.866 38.2734 177.845C38.5559 177.821 38.8631 177.761 39.195 177.666L39.0684 178.59C38.7729 178.684 38.4795 178.739 38.1882 178.755C37.8969 178.771 37.569 178.754 37.2046 178.704ZM37.638 173.993C37.2768 173.943 36.9709 174.018 36.7202 174.217C36.4728 174.416 36.298 174.732 36.196 175.165L38.6245 175.498C38.6786 175.055 38.6179 174.707 38.4424 174.453C38.2674 174.195 37.9993 174.042 37.638 173.993ZM45.693 179.768L44.5513 179.612L45.0019 176.322C45.0585 175.909 45.0168 175.59 44.8769 175.364C44.7403 175.138 44.4914 175 44.1302 174.951C43.6496 174.885 43.2786 174.979 43.0172 175.232C42.7558 175.485 42.5794 175.946 42.4879 176.613L42.1228 179.279L40.986 179.123L41.7189 173.773L42.609 173.895L42.6726 174.618L42.7306 174.626C42.9268 174.393 43.1827 174.228 43.4984 174.13C43.8141 174.032 44.1526 174.008 44.5138 174.057C45.7974 174.233 46.3497 174.974 46.1708 176.28L45.693 179.768ZM49.7769 179.49C50.0543 179.528 50.3376 179.522 50.6269 179.473L50.5096 180.329C50.3763 180.367 50.2073 180.39 50.0025 180.398C49.8004 180.409 49.593 180.401 49.3801 180.372C48.3029 180.224 47.8421 179.583 47.9976 178.447L48.3926 175.564L47.6621 175.464L47.731 174.961L48.5717 174.652L49.1138 173.573L49.8153 173.669L49.6522 174.86L51.1761 175.068L51.0581 175.929L49.5343 175.721L49.142 178.584C49.1044 178.859 49.1443 179.071 49.2616 179.222C49.3826 179.37 49.5544 179.459 49.7769 179.49ZM53.1035 180.783L51.9666 180.627L52.6996 175.277L53.8364 175.433L53.1035 180.783ZM52.826 173.85C52.8538 173.647 52.9301 173.498 53.0548 173.404C53.1827 173.309 53.3498 173.276 53.5562 173.305C53.7562 173.332 53.9035 173.408 53.9981 173.533C54.096 173.658 54.131 173.822 54.1031 174.025C54.0766 174.219 53.9992 174.364 53.8709 174.462C53.7462 174.556 53.5839 174.59 53.3839 174.562C53.1775 174.534 53.0254 174.457 52.9275 174.332C52.8333 174.204 52.7995 174.044 52.826 173.85ZM58.4777 181.519L58.3524 180.743L58.3137 180.738C58.0111 181.028 57.7209 181.215 57.4434 181.299C57.1662 181.379 56.8229 181.391 56.4133 181.335C55.8876 181.263 55.4958 181.065 55.238 180.74C54.9834 180.416 54.8917 179.995 54.9628 179.475C55.0383 178.924 55.3001 178.536 55.7481 178.312C56.1962 178.087 56.8412 178.019 57.6833 178.108L58.6112 178.206L58.6503 177.92C58.6972 177.579 58.6514 177.313 58.5132 177.123C58.3785 176.93 58.1435 176.811 57.8081 176.765C57.534 176.728 57.2656 176.732 57.003 176.778C56.7404 176.824 56.4855 176.886 56.2383 176.964L55.9819 176.101C56.293 175.989 56.6263 175.918 56.982 175.888C57.3381 175.855 57.6694 175.859 57.9758 175.901C58.6563 175.994 59.1487 176.213 59.4532 176.557C59.7609 176.901 59.8712 177.391 59.7841 178.027L59.2904 181.631L58.4777 181.519ZM56.8906 180.513C57.3034 180.57 57.6496 180.501 57.9293 180.306C58.2127 180.108 58.3829 179.801 58.4399 179.385L58.5035 178.921L57.8126 178.855C57.2745 178.802 56.8719 178.838 56.6047 178.966C56.3412 179.091 56.1869 179.318 56.1418 179.647C56.1092 179.885 56.1547 180.081 56.2785 180.232C56.4027 180.381 56.6067 180.474 56.8906 180.513ZM62.4103 182.058L61.2735 181.902L62.3046 174.375L63.4415 174.531L62.4103 182.058ZM67.5278 182.759L68.4966 175.686L69.6528 175.845L68.8198 181.926L71.8143 182.336L71.6785 183.327L67.5278 182.759ZM78.2864 181.497C78.1667 182.371 77.8491 183.023 77.3337 183.452C76.8182 183.88 76.1606 184.04 75.3608 183.93C74.8609 183.862 74.4345 183.689 74.0816 183.41C73.7288 183.132 73.4781 182.767 73.3296 182.317C73.181 181.866 73.145 181.361 73.2214 180.804C73.3403 179.936 73.6556 179.289 74.1673 178.863C74.6791 178.437 75.3398 178.28 76.1493 178.39C76.9233 178.496 77.5018 178.83 77.8848 179.392C78.2683 179.951 78.4022 180.652 78.2864 181.497ZM74.3921 180.964C74.2229 182.199 74.5947 182.879 75.5074 183.004C76.4104 183.128 76.9465 182.572 77.1157 181.337C77.2832 180.115 76.9121 179.441 76.0027 179.317C75.5253 179.251 75.157 179.362 74.8976 179.648C74.6415 179.935 74.473 180.374 74.3921 180.964ZM83.429 183.385C83.3575 183.907 83.1122 184.282 82.6932 184.511C82.2746 184.736 81.7106 184.8 81.0011 184.703C80.2883 184.605 79.7307 184.419 79.3281 184.144L79.4626 183.162C80.0518 183.538 80.6172 183.763 81.1591 183.838C81.8589 183.933 82.2378 183.77 82.2956 183.348C82.3142 183.212 82.291 183.094 82.2259 182.993C82.1609 182.892 82.0463 182.781 81.8822 182.66C81.7181 182.539 81.4864 182.396 81.1871 182.23C80.6038 181.907 80.2188 181.611 80.0322 181.342C79.8488 181.074 79.7832 180.75 79.8353 180.369C79.8981 179.911 80.1305 179.581 80.5326 179.38C80.9384 179.176 81.459 179.118 82.0943 179.205C82.7232 179.291 83.3008 179.5 83.8271 179.831L83.3421 180.637C82.7975 180.32 82.3285 180.134 81.935 180.08C81.3351 179.998 81.0118 180.128 80.965 180.469C80.942 180.637 81 180.79 81.1388 180.927C81.281 181.065 81.601 181.271 82.0988 181.546C82.5172 181.778 82.8167 181.978 82.9972 182.148C83.1777 182.317 83.3036 182.502 83.3747 182.702C83.4463 182.899 83.4644 183.127 83.429 183.385ZM88.6533 184.1C88.5817 184.623 88.3364 184.998 87.9174 185.227C87.4989 185.452 86.9349 185.516 86.2253 185.419C85.5126 185.321 84.9549 185.135 84.5524 184.859L84.6869 183.877C85.276 184.254 85.8415 184.479 86.3833 184.553C87.0832 184.649 87.462 184.486 87.5199 184.063C87.5385 183.928 87.5152 183.81 87.4502 183.709C87.3852 183.608 87.2706 183.497 87.1064 183.376C86.9423 183.255 86.7106 183.111 86.4114 182.945C85.8281 182.622 85.4431 182.326 85.2565 182.058C85.0731 181.79 85.0075 181.465 85.0596 181.085C85.1223 180.627 85.3548 180.297 85.7569 180.096C86.1627 179.892 86.6832 179.833 87.3186 179.92C87.9475 180.007 88.5251 180.215 89.0513 180.547L88.5664 181.353C88.0218 181.035 87.5527 180.849 87.1593 180.796C86.5594 180.713 86.2361 180.843 86.1892 181.185C86.1662 181.353 86.2242 181.505 86.3631 181.643C86.5052 181.78 86.8252 181.987 87.3231 182.262C87.7415 182.493 88.041 182.694 88.2215 182.863C88.402 183.032 88.5278 183.217 88.599 183.418C88.6705 183.615 88.6886 183.842 88.6533 184.1ZM92.3978 186.264C91.5657 186.15 90.9474 185.819 90.5428 185.271C90.1418 184.72 89.9997 184.018 90.1163 183.167C90.2361 182.293 90.5479 181.636 91.0517 181.196C91.5556 180.755 92.1881 180.587 92.9492 180.692C93.6555 180.788 94.1841 181.079 94.5349 181.564C94.8857 182.049 95.0097 182.668 94.9067 183.419L94.8226 184.033L91.2572 183.545C91.2022 184.067 91.2877 184.486 91.5137 184.802C91.7402 185.116 92.0937 185.306 92.5742 185.372C92.8903 185.415 93.1878 185.426 93.4666 185.405C93.7492 185.381 94.0563 185.322 94.3882 185.226L94.2616 186.15C93.9661 186.244 93.6727 186.299 93.3814 186.315C93.0901 186.331 92.7622 186.314 92.3978 186.264ZM92.8312 181.553C92.47 181.503 92.1641 181.578 91.9134 181.777C91.666 181.976 91.4912 182.292 91.3892 182.725L93.8177 183.058C93.8718 182.615 93.8111 182.267 93.6356 182.013C93.4606 181.756 93.1925 181.602 92.8312 181.553ZM99.9823 185.652C99.9107 186.174 99.6654 186.55 99.2464 186.778C98.8279 187.004 98.2638 187.068 97.5543 186.97C96.8416 186.873 96.2839 186.686 95.8814 186.411L96.0159 185.429C96.605 185.805 97.1705 186.031 97.7123 186.105C98.4121 186.201 98.791 186.037 98.8489 185.615C98.8674 185.48 98.8442 185.361 98.7792 185.26C98.7141 185.16 98.5996 185.049 98.4354 184.928C98.2713 184.806 98.0396 184.663 97.7403 184.497C97.157 184.174 96.7721 183.878 96.5855 183.61C96.4021 183.341 96.3364 183.017 96.3886 182.636C96.4513 182.178 96.6837 181.849 97.0859 181.648C97.4917 181.444 98.0122 181.385 98.6476 181.472C99.2765 181.558 99.854 181.767 100.38 182.099L99.8953 182.905C99.3507 182.587 98.8817 182.401 98.4883 182.347C97.8884 182.265 97.565 182.395 97.5182 182.737C97.4952 182.905 97.5532 183.057 97.6921 183.194C97.8342 183.332 98.1542 183.539 98.6521 183.814C99.0705 184.045 99.37 184.246 99.5505 184.415C99.731 184.584 99.8568 184.769 99.9279 184.969C99.9995 185.166 100.018 185.394 99.9823 185.652Z" fill="#7B7D7E"/>
<path d="M275.467 193.935L266.368 186.826L264.76 198.26L275.467 193.935ZM17.8607 158.721L266.415 193.672L266.694 191.692L18.1393 156.74L17.8607 158.721Z" fill="#C6C7C8"/>
<rect y="115.734" width="295" height="2" rx="1" fill="#DDDEDE"/>
<path d="M12.0123 222.02C12.0123 222.765 11.7682 223.336 11.2799 223.733C10.7916 224.131 10.0966 224.329 9.19492 224.329H8.45273V227H7.28574V219.861H9.34141C10.2333 219.861 10.9007 220.044 11.3434 220.408C11.7893 220.773 12.0123 221.31 12.0123 222.02ZM8.45273 223.348H9.07285C9.67181 223.348 10.1113 223.243 10.3912 223.035C10.6712 222.827 10.8111 222.501 10.8111 222.059C10.8111 221.648 10.6858 221.342 10.4352 221.141C10.1845 220.939 9.79388 220.838 9.26328 220.838H8.45273V223.348ZM18.5061 224.29C18.5061 225.172 18.2798 225.861 17.8273 226.355C17.3749 226.85 16.745 227.098 15.9377 227.098C15.4331 227.098 14.9872 226.984 14.5998 226.756C14.2124 226.528 13.9146 226.201 13.7062 225.774C13.4979 225.348 13.3937 224.853 13.3937 224.29C13.3937 223.414 13.6184 222.731 14.0676 222.239C14.5168 221.748 15.1499 221.502 15.967 221.502C16.7482 221.502 17.3667 221.754 17.8225 222.259C18.2782 222.76 18.5061 223.437 18.5061 224.29ZM14.5754 224.29C14.5754 225.537 15.036 226.16 15.9572 226.16C16.8687 226.16 17.3244 225.537 17.3244 224.29C17.3244 223.056 16.8654 222.439 15.9475 222.439C15.4657 222.439 15.1158 222.599 14.8977 222.918C14.6828 223.237 14.5754 223.694 14.5754 224.29ZM22.9686 221.502C23.1997 221.502 23.3901 221.518 23.5398 221.551L23.4275 222.62C23.2648 222.581 23.0955 222.562 22.9197 222.562C22.4607 222.562 22.088 222.711 21.8016 223.011C21.5184 223.31 21.3768 223.699 21.3768 224.178V227H20.2293V221.6H21.1277L21.2791 222.552H21.3377C21.5167 222.229 21.7495 221.974 22.0359 221.785C22.3257 221.596 22.6365 221.502 22.9686 221.502ZM26.9574 226.17C27.2374 226.17 27.5173 226.126 27.7973 226.038V226.902C27.6703 226.958 27.5059 227.003 27.3041 227.039C27.1055 227.078 26.8988 227.098 26.684 227.098C25.5967 227.098 25.0531 226.525 25.0531 225.379V222.469H24.3158V221.961L25.1068 221.541L25.4975 220.398H26.2055V221.6H27.7436V222.469H26.2055V225.359C26.2055 225.636 26.2738 225.841 26.4105 225.975C26.5505 226.105 26.7328 226.17 26.9574 226.17ZM31.9912 222.469H30.6729V227H29.5205V222.469H28.6318V221.932L29.5205 221.58V221.229C29.5205 220.59 29.6702 220.118 29.9697 219.812C30.2692 219.503 30.7266 219.349 31.3418 219.349C31.7454 219.349 32.1426 219.415 32.5332 219.549L32.2305 220.418C31.9473 220.327 31.6771 220.281 31.4199 220.281C31.1595 220.281 30.9691 220.363 30.8486 220.525C30.7314 220.685 30.6729 220.926 30.6729 221.248V221.6H31.9912V222.469ZM33.1432 226.39C33.1432 226.152 33.205 225.97 33.3287 225.843C33.4524 225.716 33.6314 225.652 33.8658 225.652C34.1035 225.652 34.2841 225.719 34.4078 225.853C34.5315 225.983 34.5934 226.162 34.5934 226.39C34.5934 226.621 34.5299 226.805 34.4029 226.941C34.2792 227.075 34.1002 227.142 33.8658 227.142C33.6314 227.142 33.4524 227.075 33.3287 226.941C33.205 226.808 33.1432 226.624 33.1432 226.39ZM44.0164 227L43.3035 225.018H40.574L39.8758 227H38.6453L41.3162 219.832H42.5857L45.2566 227H44.0164ZM42.9959 224.012L42.327 222.068C42.2781 221.938 42.2098 221.733 42.1219 221.453C42.0372 221.173 41.9786 220.968 41.9461 220.838C41.8582 221.238 41.7296 221.676 41.5603 222.151L40.9158 224.012H42.9959Z" fill="#C6C7C8"/>
<path d="M72.0172 222.02C72.0172 222.765 71.773 223.336 71.2848 223.733C70.7965 224.131 70.1015 224.329 69.1998 224.329H68.4576V227H67.2906V219.861H69.3463C70.2382 219.861 70.9055 220.044 71.3482 220.408C71.7942 220.773 72.0172 221.31 72.0172 222.02ZM68.4576 223.348H69.0777C69.6767 223.348 70.1161 223.243 70.3961 223.035C70.676 222.827 70.816 222.501 70.816 222.059C70.816 221.648 70.6907 221.342 70.44 221.141C70.1894 220.939 69.7988 220.838 69.2682 220.838H68.4576V223.348ZM78.5109 224.29C78.5109 225.172 78.2847 225.861 77.8322 226.355C77.3798 226.85 76.7499 227.098 75.9426 227.098C75.438 227.098 74.9921 226.984 74.6047 226.756C74.2173 226.528 73.9195 226.201 73.7111 225.774C73.5028 225.348 73.3986 224.853 73.3986 224.29C73.3986 223.414 73.6232 222.731 74.0725 222.239C74.5217 221.748 75.1548 221.502 75.9719 221.502C76.7531 221.502 77.3716 221.754 77.8273 222.259C78.2831 222.76 78.5109 223.437 78.5109 224.29ZM74.5803 224.29C74.5803 225.537 75.0409 226.16 75.9621 226.16C76.8736 226.16 77.3293 225.537 77.3293 224.29C77.3293 223.056 76.8703 222.439 75.9523 222.439C75.4706 222.439 75.1206 222.599 74.9025 222.918C74.6877 223.237 74.5803 223.694 74.5803 224.29ZM82.9734 221.502C83.2046 221.502 83.395 221.518 83.5447 221.551L83.4324 222.62C83.2697 222.581 83.1004 222.562 82.9246 222.562C82.4656 222.562 82.0929 222.711 81.8064 223.011C81.5232 223.31 81.3816 223.699 81.3816 224.178V227H80.2342V221.6H81.1326L81.284 222.552H81.3426C81.5216 222.229 81.7544 221.974 82.0408 221.785C82.3305 221.596 82.6414 221.502 82.9734 221.502ZM86.9623 226.17C87.2423 226.17 87.5222 226.126 87.8021 226.038V226.902C87.6752 226.958 87.5108 227.003 87.309 227.039C87.1104 227.078 86.9037 227.098 86.6889 227.098C85.6016 227.098 85.058 226.525 85.058 225.379V222.469H84.3207V221.961L85.1117 221.541L85.5023 220.398H86.2104V221.6H87.7484V222.469H86.2104V225.359C86.2104 225.636 86.2787 225.841 86.4154 225.975C86.5554 226.105 86.7377 226.17 86.9623 226.17ZM91.9961 222.469H90.6777V227H89.5254V222.469H88.6367V221.932L89.5254 221.58V221.229C89.5254 220.59 89.6751 220.118 89.9746 219.812C90.2741 219.503 90.7314 219.349 91.3467 219.349C91.7503 219.349 92.1475 219.415 92.5381 219.549L92.2354 220.418C91.9521 220.327 91.682 220.281 91.4248 220.281C91.1644 220.281 90.974 220.363 90.8535 220.525C90.7363 220.685 90.6777 220.926 90.6777 221.248V221.6H91.9961V222.469ZM93.148 226.39C93.148 226.152 93.2099 225.97 93.3336 225.843C93.4573 225.716 93.6363 225.652 93.8707 225.652C94.1083 225.652 94.289 225.719 94.4127 225.853C94.5364 225.983 94.5982 226.162 94.5982 226.39C94.5982 226.621 94.5348 226.805 94.4078 226.941C94.2841 227.075 94.1051 227.142 93.8707 227.142C93.6363 227.142 93.4573 227.075 93.3336 226.941C93.2099 226.808 93.148 226.624 93.148 226.39ZM99.5926 219.861H101.712C102.695 219.861 103.404 220.005 103.841 220.291C104.28 220.577 104.5 221.03 104.5 221.648C104.5 222.065 104.392 222.412 104.178 222.688C103.963 222.965 103.653 223.139 103.25 223.211V223.26C103.751 223.354 104.119 223.541 104.353 223.821C104.591 224.098 104.71 224.474 104.71 224.949C104.71 225.59 104.485 226.093 104.036 226.458C103.59 226.819 102.968 227 102.171 227H99.5926V219.861ZM100.76 222.811H101.883C102.371 222.811 102.727 222.734 102.952 222.581C103.177 222.425 103.289 222.161 103.289 221.79C103.289 221.455 103.167 221.212 102.923 221.062C102.682 220.913 102.298 220.838 101.77 220.838H100.76V222.811ZM100.76 223.758V226.019H102C102.488 226.019 102.856 225.926 103.103 225.74C103.354 225.551 103.479 225.255 103.479 224.852C103.479 224.48 103.352 224.205 103.098 224.026C102.845 223.847 102.459 223.758 101.941 223.758H100.76Z" fill="#C6C7C8"/>
<path d="M132.149 222.02C132.149 222.765 131.905 223.336 131.417 223.733C130.928 224.131 130.233 224.329 129.332 224.329H128.589V227H127.422V219.861H129.478C130.37 219.861 131.037 220.044 131.48 220.408C131.926 220.773 132.149 221.31 132.149 222.02ZM128.589 223.348H129.21C129.809 223.348 130.248 223.243 130.528 223.035C130.808 222.827 130.948 222.501 130.948 222.059C130.948 221.648 130.823 221.342 130.572 221.141C130.321 220.939 129.931 220.838 129.4 220.838H128.589V223.348ZM138.643 224.29C138.643 225.172 138.417 225.861 137.964 226.355C137.512 226.85 136.882 227.098 136.074 227.098C135.57 227.098 135.124 226.984 134.737 226.756C134.349 226.528 134.051 226.201 133.843 225.774C133.635 225.348 133.53 224.853 133.53 224.29C133.53 223.414 133.755 222.731 134.204 222.239C134.654 221.748 135.287 221.502 136.104 221.502C136.885 221.502 137.503 221.754 137.959 222.259C138.415 222.76 138.643 223.437 138.643 224.29ZM134.712 224.29C134.712 225.537 135.173 226.16 136.094 226.16C137.005 226.16 137.461 225.537 137.461 224.29C137.461 223.056 137.002 222.439 136.084 222.439C135.602 222.439 135.252 222.599 135.034 222.918C134.82 223.237 134.712 223.694 134.712 224.29ZM143.105 221.502C143.336 221.502 143.527 221.518 143.677 221.551L143.564 222.62C143.401 222.581 143.232 222.562 143.056 222.562C142.597 222.562 142.225 222.711 141.938 223.011C141.655 223.31 141.513 223.699 141.513 224.178V227H140.366V221.6H141.264L141.416 222.552H141.474C141.653 222.229 141.886 221.974 142.173 221.785C142.462 221.596 142.773 221.502 143.105 221.502ZM147.094 226.17C147.374 226.17 147.654 226.126 147.934 226.038V226.902C147.807 226.958 147.643 227.003 147.441 227.039C147.242 227.078 147.036 227.098 146.821 227.098C145.733 227.098 145.19 226.525 145.19 225.379V222.469H144.453V221.961L145.244 221.541L145.634 220.398H146.342V221.6H147.88V222.469H146.342V225.359C146.342 225.636 146.411 225.841 146.547 225.975C146.687 226.105 146.87 226.17 147.094 226.17ZM152.128 222.469H150.81V227H149.657V222.469H148.769V221.932L149.657 221.58V221.229C149.657 220.59 149.807 220.118 150.106 219.812C150.406 219.503 150.863 219.349 151.479 219.349C151.882 219.349 152.279 219.415 152.67 219.549L152.367 220.418C152.084 220.327 151.814 220.281 151.557 220.281C151.296 220.281 151.106 220.363 150.985 220.525C150.868 220.685 150.81 220.926 150.81 221.248V221.6H152.128V222.469ZM153.28 226.39C153.28 226.152 153.342 225.97 153.465 225.843C153.589 225.716 153.768 225.652 154.003 225.652C154.24 225.652 154.421 225.719 154.545 225.853C154.668 225.983 154.73 226.162 154.73 226.39C154.73 226.621 154.667 226.805 154.54 226.941C154.416 227.075 154.237 227.142 154.003 227.142C153.768 227.142 153.589 227.075 153.465 226.941C153.342 226.808 153.28 226.624 153.28 226.39ZM162.762 220.76C162.091 220.76 161.564 220.997 161.179 221.473C160.795 221.948 160.603 222.604 160.603 223.44C160.603 224.316 160.787 224.979 161.155 225.428C161.526 225.877 162.062 226.102 162.762 226.102C163.064 226.102 163.357 226.072 163.64 226.014C163.924 225.952 164.218 225.874 164.524 225.779V226.78C163.964 226.992 163.33 227.098 162.62 227.098C161.575 227.098 160.773 226.782 160.213 226.15C159.653 225.516 159.373 224.609 159.373 223.431C159.373 222.688 159.508 222.039 159.778 221.482C160.052 220.926 160.445 220.499 160.96 220.203C161.474 219.907 162.078 219.759 162.771 219.759C163.5 219.759 164.174 219.912 164.793 220.218L164.373 221.189C164.132 221.076 163.876 220.976 163.606 220.892C163.339 220.804 163.058 220.76 162.762 220.76Z" fill="#C6C7C8"/>
<path d="M191.846 222.02C191.846 222.765 191.602 223.336 191.114 223.733C190.625 224.131 189.93 224.329 189.029 224.329H188.287V227H187.12V219.861H189.175C190.067 219.861 190.734 220.044 191.177 220.408C191.623 220.773 191.846 221.31 191.846 222.02ZM188.287 223.348H188.907C189.506 223.348 189.945 223.243 190.225 223.035C190.505 222.827 190.645 222.501 190.645 222.059C190.645 221.648 190.52 221.342 190.269 221.141C190.018 220.939 189.628 220.838 189.097 220.838H188.287V223.348ZM198.34 224.29C198.34 225.172 198.114 225.861 197.661 226.355C197.209 226.85 196.579 227.098 195.771 227.098C195.267 227.098 194.821 226.984 194.434 226.756C194.046 226.528 193.748 226.201 193.54 225.774C193.332 225.348 193.228 224.853 193.228 224.29C193.228 223.414 193.452 222.731 193.901 222.239C194.351 221.748 194.984 221.502 195.801 221.502C196.582 221.502 197.201 221.754 197.656 222.259C198.112 222.76 198.34 223.437 198.34 224.29ZM194.409 224.29C194.409 225.537 194.87 226.16 195.791 226.16C196.702 226.16 197.158 225.537 197.158 224.29C197.158 223.056 196.699 222.439 195.781 222.439C195.299 222.439 194.95 222.599 194.731 222.918C194.517 223.237 194.409 223.694 194.409 224.29ZM202.802 221.502C203.033 221.502 203.224 221.518 203.374 221.551L203.261 222.62C203.099 222.581 202.929 222.562 202.754 222.562C202.295 222.562 201.922 222.711 201.635 223.011C201.352 223.31 201.211 223.699 201.211 224.178V227H200.063V221.6H200.962L201.113 222.552H201.171C201.351 222.229 201.583 221.974 201.87 221.785C202.159 221.596 202.47 221.502 202.802 221.502ZM206.791 226.17C207.071 226.17 207.351 226.126 207.631 226.038V226.902C207.504 226.958 207.34 227.003 207.138 227.039C206.939 227.078 206.733 227.098 206.518 227.098C205.431 227.098 204.887 226.525 204.887 225.379V222.469H204.15V221.961L204.941 221.541L205.331 220.398H206.039V221.6H207.577V222.469H206.039V225.359C206.039 225.636 206.108 225.841 206.244 225.975C206.384 226.105 206.567 226.17 206.791 226.17ZM211.825 222.469H210.507V227H209.354V222.469H208.466V221.932L209.354 221.58V221.229C209.354 220.59 209.504 220.118 209.804 219.812C210.103 219.503 210.56 219.349 211.176 219.349C211.579 219.349 211.976 219.415 212.367 219.549L212.064 220.418C211.781 220.327 211.511 220.281 211.254 220.281C210.993 220.281 210.803 220.363 210.682 220.525C210.565 220.685 210.507 220.926 210.507 221.248V221.6H211.825V222.469ZM212.977 226.39C212.977 226.152 213.039 225.97 213.163 225.843C213.286 225.716 213.465 225.652 213.7 225.652C213.937 225.652 214.118 225.719 214.242 225.853C214.365 225.983 214.427 226.162 214.427 226.39C214.427 226.621 214.364 226.805 214.237 226.941C214.113 227.075 213.934 227.142 213.7 227.142C213.465 227.142 213.286 227.075 213.163 226.941C213.039 226.808 212.977 226.624 212.977 226.39ZM225.227 223.362C225.227 224.541 224.9 225.442 224.246 226.067C223.591 226.689 222.649 227 221.419 227H219.421V219.861H221.629C222.765 219.861 223.648 220.167 224.28 220.779C224.911 221.391 225.227 222.252 225.227 223.362ZM223.997 223.401C223.997 221.692 223.198 220.838 221.599 220.838H220.588V226.019H221.419C223.137 226.019 223.997 225.146 223.997 223.401Z" fill="#7B7D7E"/>
<path d="M252.725 222.02C252.725 222.765 252.481 223.336 251.993 223.733C251.504 224.131 250.809 224.329 249.908 224.329H249.165V227H247.998V219.861H250.054C250.946 219.861 251.613 220.044 252.056 220.408C252.502 220.773 252.725 221.31 252.725 222.02ZM249.165 223.348H249.786C250.385 223.348 250.824 223.243 251.104 223.035C251.384 222.827 251.524 222.501 251.524 222.059C251.524 221.648 251.399 221.342 251.148 221.141C250.897 220.939 250.507 220.838 249.976 220.838H249.165V223.348ZM259.219 224.29C259.219 225.172 258.993 225.861 258.54 226.355C258.088 226.85 257.458 227.098 256.65 227.098C256.146 227.098 255.7 226.984 255.313 226.756C254.925 226.528 254.627 226.201 254.419 225.774C254.211 225.348 254.106 224.853 254.106 224.29C254.106 223.414 254.331 222.731 254.78 222.239C255.229 221.748 255.863 221.502 256.68 221.502C257.461 221.502 258.079 221.754 258.535 222.259C258.991 222.76 259.219 223.437 259.219 224.29ZM255.288 224.29C255.288 225.537 255.749 226.16 256.67 226.16C257.581 226.16 258.037 225.537 258.037 224.29C258.037 223.056 257.578 222.439 256.66 222.439C256.178 222.439 255.828 222.599 255.61 222.918C255.396 223.237 255.288 223.694 255.288 224.29ZM263.681 221.502C263.912 221.502 264.103 221.518 264.253 221.551L264.14 222.62C263.977 222.581 263.808 222.562 263.632 222.562C263.173 222.562 262.801 222.711 262.514 223.011C262.231 223.31 262.089 223.699 262.089 224.178V227H260.942V221.6H261.84L261.992 222.552H262.05C262.229 222.229 262.462 221.974 262.749 221.785C263.038 221.596 263.349 221.502 263.681 221.502ZM267.67 226.17C267.95 226.17 268.23 226.126 268.51 226.038V226.902C268.383 226.958 268.219 227.003 268.017 227.039C267.818 227.078 267.612 227.098 267.397 227.098C266.309 227.098 265.766 226.525 265.766 225.379V222.469H265.029V221.961L265.82 221.541L266.21 220.398H266.918V221.6H268.456V222.469H266.918V225.359C266.918 225.636 266.987 225.841 267.123 225.975C267.263 226.105 267.446 226.17 267.67 226.17ZM272.704 222.469H271.386V227H270.233V222.469H269.345V221.932L270.233 221.58V221.229C270.233 220.59 270.383 220.118 270.682 219.812C270.982 219.503 271.439 219.349 272.054 219.349C272.458 219.349 272.855 219.415 273.246 219.549L272.943 220.418C272.66 220.327 272.39 220.281 272.133 220.281C271.872 220.281 271.682 220.363 271.561 220.525C271.444 220.685 271.386 220.926 271.386 221.248V221.6H272.704V222.469ZM273.856 226.39C273.856 226.152 273.918 225.97 274.041 225.843C274.165 225.716 274.344 225.652 274.579 225.652C274.816 225.652 274.997 225.719 275.121 225.853C275.244 225.983 275.306 226.162 275.306 226.39C275.306 226.621 275.243 226.805 275.116 226.941C274.992 227.075 274.813 227.142 274.579 227.142C274.344 227.142 274.165 227.075 274.041 226.941C273.918 226.808 273.856 226.624 273.856 226.39ZM284.338 227H280.3V219.861H284.338V220.848H281.467V222.791H284.158V223.768H281.467V226.009H284.338V227Z" fill="#C6C7C8"/>
<path d="M15.2508 100.736H14.1033V96.127C14.1033 95.5768 14.1163 95.1406 14.1424 94.8184C14.0675 94.8965 13.9747 94.9827 13.8641 95.0771C13.7566 95.1715 13.3921 95.471 12.7703 95.9756L12.1941 95.248L14.2937 93.5977H15.2508V100.736ZM18.8051 100.736L21.6273 94.6182H17.9164V93.6074H22.8529V94.4082L20.0453 100.736H18.8051ZM24.3174 100.126C24.3174 99.8883 24.3792 99.7061 24.5029 99.5791C24.6266 99.4521 24.8057 99.3887 25.04 99.3887C25.2777 99.3887 25.4583 99.4554 25.582 99.5889C25.7057 99.7191 25.7676 99.8981 25.7676 100.126C25.7676 100.357 25.7041 100.541 25.5771 100.678C25.4535 100.811 25.2744 100.878 25.04 100.878C24.8057 100.878 24.6266 100.811 24.5029 100.678C24.3792 100.544 24.3174 100.36 24.3174 100.126ZM28.0719 100.736L30.8941 94.6182H27.1832V93.6074H32.1197V94.4082L29.3121 100.736H28.0719ZM34.2971 95.7363C34.2971 96.2214 34.3443 96.5827 34.4387 96.8203C34.5331 97.0579 34.6877 97.1768 34.9025 97.1768C35.3322 97.1768 35.5471 96.6966 35.5471 95.7363C35.5471 94.776 35.3322 94.2959 34.9025 94.2959C34.6877 94.2959 34.5331 94.4147 34.4387 94.6523C34.3443 94.89 34.2971 95.2513 34.2971 95.7363ZM36.4943 95.7266C36.4943 96.4753 36.3592 97.0384 36.0891 97.416C35.8221 97.7904 35.4266 97.9775 34.9025 97.9775C34.4077 97.9775 34.0236 97.7839 33.7502 97.3965C33.48 97.0059 33.3449 96.4492 33.3449 95.7266C33.3449 94.2389 33.8641 93.4951 34.9025 93.4951C35.4136 93.4951 35.8059 93.6888 36.0793 94.0762C36.356 94.4603 36.4943 95.0104 36.4943 95.7266ZM38.9455 98.5879C38.9455 99.0729 38.9927 99.4359 39.0871 99.6768C39.1848 99.9176 39.341 100.038 39.5559 100.038C39.9823 100.038 40.1955 99.5547 40.1955 98.5879C40.1955 97.6341 39.9823 97.1572 39.5559 97.1572C39.341 97.1572 39.1848 97.2744 39.0871 97.5088C38.9927 97.7432 38.9455 98.1029 38.9455 98.5879ZM41.1428 98.5879C41.1428 99.3366 41.0077 99.8981 40.7375 100.272C40.4673 100.647 40.0734 100.834 39.5559 100.834C39.0611 100.834 38.677 100.642 38.4035 100.258C38.1301 99.8704 37.9934 99.3138 37.9934 98.5879C37.9934 97.1003 38.5142 96.3564 39.5559 96.3564C40.0572 96.3564 40.4462 96.5485 40.7229 96.9326C41.0028 97.3167 41.1428 97.8685 41.1428 98.5879ZM39.6926 93.5977L35.7326 100.736H34.7854L38.7453 93.5977H39.6926Z" fill="#C6C7C8"/>
<path d="M13.0389 130.542V129.565H15.5486V130.542H13.0389ZM17.56 132.734L20.3822 126.616H16.6713V125.605H21.6078V126.406L18.8002 132.734H17.56ZM23.0723 132.124C23.0723 131.886 23.1341 131.704 23.2578 131.577C23.3815 131.45 23.5605 131.387 23.7949 131.387C24.0326 131.387 24.2132 131.453 24.3369 131.587C24.4606 131.717 24.5225 131.896 24.5225 132.124C24.5225 132.355 24.459 132.539 24.332 132.676C24.2083 132.809 24.0293 132.876 23.7949 132.876C23.5605 132.876 23.3815 132.809 23.2578 132.676C23.1341 132.542 23.0723 132.358 23.0723 132.124ZM30.8551 129.165C30.8551 130.405 30.6549 131.326 30.2545 131.929C29.8574 132.531 29.2486 132.832 28.4283 132.832C27.634 132.832 27.0318 132.521 26.6217 131.899C26.2115 131.278 26.0064 130.366 26.0064 129.165C26.0064 127.905 26.205 126.978 26.6021 126.382C27.0025 125.783 27.6113 125.483 28.4283 125.483C29.2258 125.483 29.8297 125.796 30.2398 126.421C30.65 127.046 30.8551 127.961 30.8551 129.165ZM27.1686 129.165C27.1686 130.138 27.2678 130.833 27.4664 131.25C27.6682 131.667 27.9889 131.875 28.4283 131.875C28.8678 131.875 29.1884 131.663 29.3902 131.24C29.5953 130.817 29.6979 130.125 29.6979 129.165C29.6979 128.208 29.5953 127.516 29.3902 127.09C29.1884 126.66 28.8678 126.445 28.4283 126.445C27.9889 126.445 27.6682 126.655 27.4664 127.075C27.2678 127.495 27.1686 128.192 27.1686 129.165ZM33.052 127.734C33.052 128.219 33.0992 128.581 33.1936 128.818C33.288 129.056 33.4426 129.175 33.6574 129.175C34.0871 129.175 34.302 128.695 34.302 127.734C34.302 126.774 34.0871 126.294 33.6574 126.294C33.4426 126.294 33.288 126.413 33.1936 126.65C33.0992 126.888 33.052 127.249 33.052 127.734ZM35.2492 127.725C35.2492 128.473 35.1141 129.036 34.8439 129.414C34.577 129.788 34.1815 129.976 33.6574 129.976C33.1626 129.976 32.7785 129.782 32.5051 129.395C32.2349 129.004 32.0998 128.447 32.0998 127.725C32.0998 126.237 32.619 125.493 33.6574 125.493C34.1685 125.493 34.5607 125.687 34.8342 126.074C35.1109 126.458 35.2492 127.008 35.2492 127.725ZM37.7004 130.586C37.7004 131.071 37.7476 131.434 37.842 131.675C37.9396 131.916 38.0959 132.036 38.3107 132.036C38.7372 132.036 38.9504 131.553 38.9504 130.586C38.9504 129.632 38.7372 129.155 38.3107 129.155C38.0959 129.155 37.9396 129.272 37.842 129.507C37.7476 129.741 37.7004 130.101 37.7004 130.586ZM39.8977 130.586C39.8977 131.335 39.7626 131.896 39.4924 132.271C39.2222 132.645 38.8283 132.832 38.3107 132.832C37.8159 132.832 37.4318 132.64 37.1584 132.256C36.885 131.868 36.7482 131.312 36.7482 130.586C36.7482 129.098 37.2691 128.354 38.3107 128.354C38.812 128.354 39.201 128.547 39.4777 128.931C39.7577 129.315 39.8977 129.867 39.8977 130.586ZM38.4475 125.596L34.4875 132.734H33.5402L37.5002 125.596H38.4475Z" fill="#C6C7C8"/>
<rect opacity="0.2" x="18" y="104.736" width="17" height="10" fill="#72CAA5"/>
<rect opacity="0.2" x="18" y="118.734" width="17" height="1" fill="#FF896E"/>
<path d="M75.2508 88.7363H74.1033V84.127C74.1033 83.5768 74.1163 83.1406 74.1424 82.8184C74.0675 82.8965 73.9747 82.9827 73.8641 83.0771C73.7566 83.1715 73.3921 83.471 72.7703 83.9756L72.1941 83.248L74.2937 81.5977H75.2508V88.7363ZM82.8236 84.6445C82.8236 86.0508 82.5404 87.1006 81.974 87.7939C81.4076 88.4873 80.5548 88.834 79.4154 88.834C78.9825 88.834 78.6716 88.8079 78.4828 88.7559V87.7939C78.7725 87.8753 79.0639 87.916 79.3568 87.916C80.1316 87.916 80.7094 87.7077 81.0902 87.291C81.4711 86.8743 81.6794 86.2201 81.7152 85.3281H81.6566C81.4646 85.6211 81.2318 85.8327 80.9584 85.9629C80.6882 86.0931 80.3708 86.1582 80.0063 86.1582C79.3747 86.1582 78.8783 85.9613 78.517 85.5674C78.1557 85.1735 77.975 84.6331 77.975 83.9463C77.975 83.2008 78.1833 82.6084 78.6 82.1689C79.0199 81.7262 79.5912 81.5049 80.3139 81.5049C80.8217 81.5049 81.2644 81.6286 81.642 81.876C82.0196 82.1234 82.3109 82.4831 82.516 82.9551C82.7211 83.4238 82.8236 83.987 82.8236 84.6445ZM80.3334 82.457C79.9363 82.457 79.6319 82.5872 79.4203 82.8477C79.2087 83.1048 79.1029 83.4678 79.1029 83.9365C79.1029 84.3434 79.2006 84.6641 79.3959 84.8984C79.5945 85.1296 79.8939 85.2451 80.2943 85.2451C80.6817 85.2451 81.0072 85.1296 81.2709 84.8984C81.5346 84.6673 81.6664 84.3971 81.6664 84.0879C81.6664 83.7982 81.6094 83.528 81.4955 83.2773C81.3848 83.0234 81.2286 82.8232 81.0268 82.6768C80.8249 82.5303 80.5938 82.457 80.3334 82.457ZM84.3174 88.126C84.3174 87.8883 84.3792 87.7061 84.5029 87.5791C84.6266 87.4521 84.8057 87.3887 85.04 87.3887C85.2777 87.3887 85.4583 87.4554 85.582 87.5889C85.7057 87.7191 85.7676 87.8981 85.7676 88.126C85.7676 88.3571 85.7041 88.541 85.5771 88.6777C85.4535 88.8112 85.2744 88.8779 85.04 88.8779C84.8057 88.8779 84.6266 88.8112 84.5029 88.6777C84.3792 88.5443 84.3174 88.3604 84.3174 88.126ZM92.0904 84.6445C92.0904 86.0508 91.8072 87.1006 91.2408 87.7939C90.6744 88.4873 89.8215 88.834 88.6822 88.834C88.2493 88.834 87.9384 88.8079 87.7496 88.7559V87.7939C88.0393 87.8753 88.3307 87.916 88.6236 87.916C89.3984 87.916 89.9762 87.7077 90.357 87.291C90.7379 86.8743 90.9462 86.2201 90.982 85.3281H90.9234C90.7314 85.6211 90.4986 85.8327 90.2252 85.9629C89.955 86.0931 89.6376 86.1582 89.273 86.1582C88.6415 86.1582 88.1451 85.9613 87.7838 85.5674C87.4225 85.1735 87.2418 84.6331 87.2418 83.9463C87.2418 83.2008 87.4501 82.6084 87.8668 82.1689C88.2867 81.7262 88.858 81.5049 89.5807 81.5049C90.0885 81.5049 90.5312 81.6286 90.9088 81.876C91.2864 82.1234 91.5777 82.4831 91.7828 82.9551C91.9879 83.4238 92.0904 83.987 92.0904 84.6445ZM89.6002 82.457C89.2031 82.457 88.8987 82.5872 88.6871 82.8477C88.4755 83.1048 88.3697 83.4678 88.3697 83.9365C88.3697 84.3434 88.4674 84.6641 88.6627 84.8984C88.8613 85.1296 89.1607 85.2451 89.5611 85.2451C89.9485 85.2451 90.274 85.1296 90.5377 84.8984C90.8014 84.6673 90.9332 84.3971 90.9332 84.0879C90.9332 83.7982 90.8762 83.528 90.7623 83.2773C90.6516 83.0234 90.4954 82.8232 90.2936 82.6768C90.0917 82.5303 89.8606 82.457 89.6002 82.457ZM94.2971 83.7363C94.2971 84.2214 94.3443 84.5827 94.4387 84.8203C94.5331 85.0579 94.6877 85.1768 94.9025 85.1768C95.3322 85.1768 95.5471 84.6966 95.5471 83.7363C95.5471 82.776 95.3322 82.2959 94.9025 82.2959C94.6877 82.2959 94.5331 82.4147 94.4387 82.6523C94.3443 82.89 94.2971 83.2513 94.2971 83.7363ZM96.4943 83.7266C96.4943 84.4753 96.3592 85.0384 96.0891 85.416C95.8221 85.7904 95.4266 85.9775 94.9025 85.9775C94.4077 85.9775 94.0236 85.7839 93.7502 85.3965C93.48 85.0059 93.3449 84.4492 93.3449 83.7266C93.3449 82.2389 93.8641 81.4951 94.9025 81.4951C95.4136 81.4951 95.8059 81.6888 96.0793 82.0762C96.356 82.4603 96.4943 83.0104 96.4943 83.7266ZM98.9455 86.5879C98.9455 87.0729 98.9927 87.4359 99.0871 87.6768C99.1848 87.9176 99.341 88.0381 99.5559 88.0381C99.9823 88.0381 100.196 87.5547 100.196 86.5879C100.196 85.6341 99.9823 85.1572 99.5559 85.1572C99.341 85.1572 99.1848 85.2744 99.0871 85.5088C98.9927 85.7432 98.9455 86.1029 98.9455 86.5879ZM101.143 86.5879C101.143 87.3366 101.008 87.8981 100.737 88.2725C100.467 88.6468 100.073 88.834 99.5559 88.834C99.0611 88.834 98.677 88.6419 98.4035 88.2578C98.1301 87.8704 97.9934 87.3138 97.9934 86.5879C97.9934 85.1003 98.5142 84.3564 99.5559 84.3564C100.057 84.3564 100.446 84.5485 100.723 84.9326C101.003 85.3167 101.143 85.8685 101.143 86.5879ZM99.6926 81.5977L95.7326 88.7363H94.7854L98.7453 81.5977H99.6926Z" fill="#C6C7C8"/>
<path d="M73.0389 136.542V135.565H75.5486V136.542H73.0389ZM81.5785 134.643C81.5785 136.049 81.2953 137.099 80.7289 137.792C80.1625 138.485 79.3096 138.832 78.1703 138.832C77.7374 138.832 77.4265 138.806 77.2377 138.754V137.792C77.5274 137.873 77.8187 137.914 78.1117 137.914C78.8865 137.914 79.4643 137.706 79.8451 137.289C80.226 136.872 80.4343 136.218 80.4701 135.326H80.4115C80.2195 135.619 79.9867 135.831 79.7133 135.961C79.4431 136.091 79.1257 136.156 78.7611 136.156C78.1296 136.156 77.6332 135.959 77.2719 135.565C76.9105 135.172 76.7299 134.631 76.7299 133.944C76.7299 133.199 76.9382 132.606 77.3549 132.167C77.7748 131.724 78.3461 131.503 79.0687 131.503C79.5766 131.503 80.0193 131.627 80.3969 131.874C80.7745 132.121 81.0658 132.481 81.2709 132.953C81.476 133.422 81.5785 133.985 81.5785 134.643ZM79.0883 132.455C78.6911 132.455 78.3868 132.585 78.1752 132.846C77.9636 133.103 77.8578 133.466 77.8578 133.935C77.8578 134.341 77.9555 134.662 78.1508 134.896C78.3493 135.128 78.6488 135.243 79.0492 135.243C79.4366 135.243 79.7621 135.128 80.0258 134.896C80.2895 134.665 80.4213 134.395 80.4213 134.086C80.4213 133.796 80.3643 133.526 80.2504 133.275C80.1397 133.021 79.9835 132.821 79.7816 132.675C79.5798 132.528 79.3487 132.455 79.0883 132.455ZM83.0723 138.124C83.0723 137.886 83.1341 137.704 83.2578 137.577C83.3815 137.45 83.5605 137.387 83.7949 137.387C84.0326 137.387 84.2132 137.453 84.3369 137.587C84.4606 137.717 84.5225 137.896 84.5225 138.124C84.5225 138.355 84.459 138.539 84.332 138.676C84.2083 138.809 84.0293 138.876 83.7949 138.876C83.5605 138.876 83.3815 138.809 83.2578 138.676C83.1341 138.542 83.0723 138.358 83.0723 138.124ZM90.8551 135.165C90.8551 136.405 90.6549 137.326 90.2545 137.929C89.8574 138.531 89.2486 138.832 88.4283 138.832C87.634 138.832 87.0318 138.521 86.6217 137.899C86.2115 137.278 86.0064 136.366 86.0064 135.165C86.0064 133.905 86.205 132.978 86.6021 132.382C87.0025 131.783 87.6113 131.483 88.4283 131.483C89.2258 131.483 89.8297 131.796 90.2398 132.421C90.65 133.046 90.8551 133.961 90.8551 135.165ZM87.1686 135.165C87.1686 136.138 87.2678 136.833 87.4664 137.25C87.6682 137.667 87.9889 137.875 88.4283 137.875C88.8678 137.875 89.1884 137.663 89.3902 137.24C89.5953 136.817 89.6979 136.125 89.6979 135.165C89.6979 134.208 89.5953 133.516 89.3902 133.09C89.1884 132.66 88.8678 132.445 88.4283 132.445C87.9889 132.445 87.6682 132.655 87.4664 133.075C87.2678 133.495 87.1686 134.192 87.1686 135.165ZM93.052 133.734C93.052 134.219 93.0992 134.581 93.1936 134.818C93.288 135.056 93.4426 135.175 93.6574 135.175C94.0871 135.175 94.302 134.695 94.302 133.734C94.302 132.774 94.0871 132.294 93.6574 132.294C93.4426 132.294 93.288 132.413 93.1936 132.65C93.0992 132.888 93.052 133.249 93.052 133.734ZM95.2492 133.725C95.2492 134.473 95.1141 135.036 94.8439 135.414C94.577 135.788 94.1815 135.976 93.6574 135.976C93.1626 135.976 92.7785 135.782 92.5051 135.395C92.2349 135.004 92.0998 134.447 92.0998 133.725C92.0998 132.237 92.619 131.493 93.6574 131.493C94.1685 131.493 94.5607 131.687 94.8342 132.074C95.1109 132.458 95.2492 133.008 95.2492 133.725ZM97.7004 136.586C97.7004 137.071 97.7476 137.434 97.842 137.675C97.9396 137.916 98.0959 138.036 98.3107 138.036C98.7372 138.036 98.9504 137.553 98.9504 136.586C98.9504 135.632 98.7372 135.155 98.3107 135.155C98.0959 135.155 97.9396 135.272 97.842 135.507C97.7476 135.741 97.7004 136.101 97.7004 136.586ZM99.8977 136.586C99.8977 137.335 99.7626 137.896 99.4924 138.271C99.2222 138.645 98.8283 138.832 98.3107 138.832C97.8159 138.832 97.4318 138.64 97.1584 138.256C96.885 137.868 96.7482 137.312 96.7482 136.586C96.7482 135.098 97.2691 134.354 98.3107 134.354C98.812 134.354 99.201 134.547 99.4777 134.931C99.7577 135.315 99.8977 135.867 99.8977 136.586ZM98.4475 131.596L94.4875 138.734H93.5402L97.5002 131.596H98.4475Z" fill="#C6C7C8"/>
<rect opacity="0.2" x="77" y="92.7363" width="18" height="22" fill="#72CAA5"/>
<rect opacity="0.2" x="77" y="118.734" width="18" height="8" fill="#FF896E"/>
<path d="M135.721 70.7363H130.882V69.8672L132.722 68.0166C133.266 67.46 133.626 67.0661 133.802 66.835C133.981 66.6006 134.111 66.3809 134.192 66.1758C134.274 65.9707 134.314 65.751 134.314 65.5166C134.314 65.1943 134.217 64.9404 134.021 64.7549C133.829 64.5693 133.562 64.4766 133.221 64.4766C132.947 64.4766 132.682 64.527 132.425 64.6279C132.171 64.7288 131.876 64.9111 131.541 65.1748L130.921 64.418C131.318 64.0827 131.704 63.8451 132.078 63.7051C132.452 63.5651 132.851 63.4951 133.274 63.4951C133.938 63.4951 134.471 63.6693 134.871 64.0176C135.271 64.3626 135.471 64.8281 135.471 65.4141C135.471 65.7363 135.413 66.0423 135.296 66.332C135.182 66.6217 135.004 66.9212 134.763 67.2305C134.526 67.5365 134.129 67.9515 133.572 68.4756L132.332 69.6768V69.7256H135.721V70.7363ZM141.824 66.6445C141.824 68.0508 141.54 69.1006 140.974 69.7939C140.408 70.4873 139.555 70.834 138.415 70.834C137.982 70.834 137.672 70.8079 137.483 70.7559V69.7939C137.773 69.8753 138.064 69.916 138.357 69.916C139.132 69.916 139.709 69.7077 140.09 69.291C140.471 68.8743 140.679 68.2201 140.715 67.3281H140.657C140.465 67.6211 140.232 67.8327 139.958 67.9629C139.688 68.0931 139.371 68.1582 139.006 68.1582C138.375 68.1582 137.878 67.9613 137.517 67.5674C137.156 67.1735 136.975 66.6331 136.975 65.9463C136.975 65.2008 137.183 64.6084 137.6 64.1689C138.02 63.7262 138.591 63.5049 139.314 63.5049C139.822 63.5049 140.264 63.6286 140.642 63.876C141.02 64.1234 141.311 64.4831 141.516 64.9551C141.721 65.4238 141.824 65.987 141.824 66.6445ZM139.333 64.457C138.936 64.457 138.632 64.5872 138.42 64.8477C138.209 65.1048 138.103 65.4678 138.103 65.9365C138.103 66.3434 138.201 66.6641 138.396 66.8984C138.594 67.1296 138.894 67.2451 139.294 67.2451C139.682 67.2451 140.007 67.1296 140.271 66.8984C140.535 66.6673 140.666 66.3971 140.666 66.0879C140.666 65.7982 140.609 65.528 140.496 65.2773C140.385 65.0234 140.229 64.8232 140.027 64.6768C139.825 64.5303 139.594 64.457 139.333 64.457ZM143.317 70.126C143.317 69.8883 143.379 69.7061 143.503 69.5791C143.627 69.4521 143.806 69.3887 144.04 69.3887C144.278 69.3887 144.458 69.4554 144.582 69.5889C144.706 69.7191 144.768 69.8981 144.768 70.126C144.768 70.3571 144.704 70.541 144.577 70.6777C144.453 70.8112 144.274 70.8779 144.04 70.8779C143.806 70.8779 143.627 70.8112 143.503 70.6777C143.379 70.5443 143.317 70.3604 143.317 70.126ZM149.63 70.7363H148.483V66.127C148.483 65.5768 148.496 65.1406 148.522 64.8184C148.447 64.8965 148.354 64.9827 148.244 65.0771C148.136 65.1715 147.772 65.471 147.15 65.9756L146.574 65.248L148.673 63.5977H149.63V70.7363ZM153.297 65.7363C153.297 66.2214 153.344 66.5827 153.439 66.8203C153.533 67.0579 153.688 67.1768 153.903 67.1768C154.332 67.1768 154.547 66.6966 154.547 65.7363C154.547 64.776 154.332 64.2959 153.903 64.2959C153.688 64.2959 153.533 64.4147 153.439 64.6523C153.344 64.89 153.297 65.2513 153.297 65.7363ZM155.494 65.7266C155.494 66.4753 155.359 67.0384 155.089 67.416C154.822 67.7904 154.427 67.9775 153.903 67.9775C153.408 67.9775 153.024 67.7839 152.75 67.3965C152.48 67.0059 152.345 66.4492 152.345 65.7266C152.345 64.2389 152.864 63.4951 153.903 63.4951C154.414 63.4951 154.806 63.6888 155.079 64.0762C155.356 64.4603 155.494 65.0104 155.494 65.7266ZM157.946 68.5879C157.946 69.0729 157.993 69.4359 158.087 69.6768C158.185 69.9176 158.341 70.0381 158.556 70.0381C158.982 70.0381 159.196 69.5547 159.196 68.5879C159.196 67.6341 158.982 67.1572 158.556 67.1572C158.341 67.1572 158.185 67.2744 158.087 67.5088C157.993 67.7432 157.946 68.1029 157.946 68.5879ZM160.143 68.5879C160.143 69.3366 160.008 69.8981 159.737 70.2725C159.467 70.6468 159.073 70.834 158.556 70.834C158.061 70.834 157.677 70.6419 157.404 70.2578C157.13 69.8704 156.993 69.3138 156.993 68.5879C156.993 67.1003 157.514 66.3564 158.556 66.3564C159.057 66.3564 159.446 66.5485 159.723 66.9326C160.003 67.3167 160.143 67.8685 160.143 68.5879ZM158.693 63.5977L154.733 70.7363H153.785L157.745 63.5977H158.693Z" fill="#C6C7C8"/>
<rect opacity="0.2" x="137" y="74.7363" width="18" height="39.9984" fill="#72CAA5"/>
<path d="M129.482 148.54V147.563H131.992V148.54H129.482ZM136.562 150.732H135.415V146.123C135.415 145.573 135.428 145.137 135.454 144.814C135.379 144.893 135.286 144.979 135.175 145.073C135.068 145.168 134.703 145.467 134.082 145.972L133.505 145.244L135.605 143.594H136.562V150.732ZM140.116 150.732L142.939 144.614H139.228V143.604H144.164V144.404L141.357 150.732H140.116ZM145.629 150.122C145.629 149.884 145.691 149.702 145.814 149.575C145.938 149.448 146.117 149.385 146.351 149.385C146.589 149.385 146.77 149.451 146.893 149.585C147.017 149.715 147.079 149.894 147.079 150.122C147.079 150.353 147.015 150.537 146.888 150.674C146.765 150.807 146.586 150.874 146.351 150.874C146.117 150.874 145.938 150.807 145.814 150.674C145.691 150.54 145.629 150.356 145.629 150.122ZM150.995 146.274C151.714 146.274 152.284 146.465 152.704 146.846C153.123 147.227 153.333 147.746 153.333 148.403C153.333 149.165 153.094 149.761 152.616 150.19C152.14 150.617 151.463 150.83 150.584 150.83C149.787 150.83 149.16 150.701 148.704 150.444V149.404C148.968 149.554 149.271 149.67 149.613 149.751C149.954 149.832 150.272 149.873 150.565 149.873C151.082 149.873 151.476 149.757 151.746 149.526C152.017 149.295 152.152 148.957 152.152 148.511C152.152 147.658 151.608 147.231 150.521 147.231C150.368 147.231 150.179 147.248 149.954 147.28C149.73 147.31 149.533 147.344 149.364 147.383L148.851 147.08L149.124 143.594H152.835V144.614H150.135L149.974 146.382C150.088 146.362 150.226 146.34 150.389 146.313C150.555 146.287 150.757 146.274 150.995 146.274ZM155.608 145.732C155.608 146.217 155.656 146.579 155.75 146.816C155.844 147.054 155.999 147.173 156.214 147.173C156.644 147.173 156.858 146.693 156.858 145.732C156.858 144.772 156.644 144.292 156.214 144.292C155.999 144.292 155.844 144.411 155.75 144.648C155.656 144.886 155.608 145.247 155.608 145.732ZM157.806 145.723C157.806 146.471 157.671 147.035 157.4 147.412C157.133 147.786 156.738 147.974 156.214 147.974C155.719 147.974 155.335 147.78 155.062 147.393C154.791 147.002 154.656 146.445 154.656 145.723C154.656 144.235 155.175 143.491 156.214 143.491C156.725 143.491 157.117 143.685 157.391 144.072C157.667 144.456 157.806 145.007 157.806 145.723ZM160.257 148.584C160.257 149.069 160.304 149.432 160.398 149.673C160.496 149.914 160.652 150.034 160.867 150.034C161.294 150.034 161.507 149.551 161.507 148.584C161.507 147.63 161.294 147.153 160.867 147.153C160.652 147.153 160.496 147.271 160.398 147.505C160.304 147.739 160.257 148.099 160.257 148.584ZM162.454 148.584C162.454 149.333 162.319 149.894 162.049 150.269C161.779 150.643 161.385 150.83 160.867 150.83C160.372 150.83 159.988 150.638 159.715 150.254C159.441 149.867 159.305 149.31 159.305 148.584C159.305 147.096 159.826 146.353 160.867 146.353C161.368 146.353 161.757 146.545 162.034 146.929C162.314 147.313 162.454 147.865 162.454 148.584ZM161.004 143.594L157.044 150.732H156.097L160.057 143.594H161.004Z" fill="#C6C7C8"/>
<rect opacity="0.2" x="137" y="118.734" width="18" height="20" fill="#FF896E"/>
<path d="M188.982 158.542V157.565H191.492V158.542H188.982ZM197.532 160.734H192.693V159.865L194.534 158.015C195.077 157.458 195.437 157.064 195.613 156.833C195.792 156.599 195.922 156.379 196.004 156.174C196.085 155.969 196.126 155.749 196.126 155.515C196.126 155.192 196.028 154.938 195.833 154.753C195.641 154.567 195.374 154.475 195.032 154.475C194.758 154.475 194.493 154.525 194.236 154.626C193.982 154.727 193.687 154.909 193.352 155.173L192.732 154.416C193.129 154.081 193.515 153.843 193.889 153.703C194.264 153.563 194.662 153.493 195.086 153.493C195.75 153.493 196.282 153.667 196.682 154.016C197.083 154.361 197.283 154.826 197.283 155.412C197.283 155.734 197.224 156.04 197.107 156.33C196.993 156.62 196.816 156.919 196.575 157.229C196.337 157.535 195.94 157.95 195.383 158.474L194.143 159.675V159.724H197.532V160.734ZM203.645 157.165C203.645 158.405 203.445 159.326 203.044 159.929C202.647 160.531 202.038 160.832 201.218 160.832C200.424 160.832 199.821 160.521 199.411 159.899C199.001 159.278 198.796 158.366 198.796 157.165C198.796 155.905 198.995 154.978 199.392 154.382C199.792 153.783 200.401 153.483 201.218 153.483C202.015 153.483 202.619 153.796 203.029 154.421C203.44 155.046 203.645 155.961 203.645 157.165ZM199.958 157.165C199.958 158.138 200.057 158.833 200.256 159.25C200.458 159.667 200.779 159.875 201.218 159.875C201.657 159.875 201.978 159.663 202.18 159.24C202.385 158.817 202.488 158.125 202.488 157.165C202.488 156.208 202.385 155.516 202.18 155.09C201.978 154.66 201.657 154.445 201.218 154.445C200.779 154.445 200.458 154.655 200.256 155.075C200.057 155.495 199.958 156.192 199.958 157.165ZM205.129 160.124C205.129 159.886 205.191 159.704 205.314 159.577C205.438 159.45 205.617 159.387 205.851 159.387C206.089 159.387 206.27 159.453 206.393 159.587C206.517 159.717 206.579 159.896 206.579 160.124C206.579 160.355 206.515 160.539 206.388 160.676C206.265 160.809 206.086 160.876 205.851 160.876C205.617 160.876 205.438 160.809 205.314 160.676C205.191 160.542 205.129 160.358 205.129 160.124ZM211.442 160.734H210.294V156.125C210.294 155.575 210.307 155.139 210.333 154.816C210.259 154.895 210.166 154.981 210.055 155.075C209.948 155.17 209.583 155.469 208.961 155.974L208.385 155.246L210.485 153.596H211.442V160.734ZM215.108 155.734C215.108 156.219 215.156 156.581 215.25 156.818C215.344 157.056 215.499 157.175 215.714 157.175C216.144 157.175 216.358 156.695 216.358 155.734C216.358 154.774 216.144 154.294 215.714 154.294C215.499 154.294 215.344 154.413 215.25 154.65C215.156 154.888 215.108 155.249 215.108 155.734ZM217.306 155.725C217.306 156.473 217.171 157.036 216.9 157.414C216.633 157.788 216.238 157.976 215.714 157.976C215.219 157.976 214.835 157.782 214.562 157.395C214.291 157.004 214.156 156.447 214.156 155.725C214.156 154.237 214.675 153.493 215.714 153.493C216.225 153.493 216.617 153.687 216.891 154.074C217.167 154.458 217.306 155.008 217.306 155.725ZM219.757 158.586C219.757 159.071 219.804 159.434 219.898 159.675C219.996 159.916 220.152 160.036 220.367 160.036C220.794 160.036 221.007 159.553 221.007 158.586C221.007 157.632 220.794 157.155 220.367 157.155C220.152 157.155 219.996 157.272 219.898 157.507C219.804 157.741 219.757 158.101 219.757 158.586ZM221.954 158.586C221.954 159.335 221.819 159.896 221.549 160.271C221.279 160.645 220.885 160.832 220.367 160.832C219.872 160.832 219.488 160.64 219.215 160.256C218.941 159.868 218.805 159.312 218.805 158.586C218.805 157.098 219.326 156.354 220.367 156.354C220.868 156.354 221.257 156.547 221.534 156.931C221.814 157.315 221.954 157.867 221.954 158.586ZM220.504 153.596L216.544 160.734H215.597L219.557 153.596H220.504Z" fill="#575A5C"/>
<rect x="197" y="118.734" width="18" height="29.9988" fill="#FF896E"/>
<path d="M195.952 49.2402C195.952 49.6927 195.82 50.0703 195.556 50.373C195.293 50.6725 194.922 50.8743 194.443 50.9785V51.0176C195.016 51.0892 195.446 51.2682 195.732 51.5547C196.019 51.8379 196.162 52.2155 196.162 52.6875C196.162 53.3743 195.919 53.9049 195.434 54.2793C194.949 54.6504 194.259 54.8359 193.364 54.8359C192.573 54.8359 191.906 54.7074 191.362 54.4502V53.4297C191.665 53.5794 191.985 53.695 192.324 53.7764C192.663 53.8577 192.988 53.8984 193.301 53.8984C193.854 53.8984 194.267 53.7959 194.541 53.5908C194.814 53.3857 194.951 53.0684 194.951 52.6387C194.951 52.2578 194.8 51.9779 194.497 51.7988C194.194 51.6198 193.719 51.5303 193.071 51.5303H192.451V50.5977H193.081C194.22 50.5977 194.79 50.2038 194.79 49.416C194.79 49.11 194.691 48.874 194.492 48.708C194.293 48.542 194 48.459 193.613 48.459C193.343 48.459 193.082 48.498 192.832 48.5762C192.581 48.651 192.285 48.7992 191.943 49.0205L191.382 48.2197C192.036 47.738 192.796 47.4971 193.662 47.4971C194.381 47.4971 194.943 47.6517 195.346 47.9609C195.75 48.2702 195.952 48.6966 195.952 49.2402ZM202.333 54.7383H197.495V53.8691L199.335 52.0186C199.879 51.4619 200.239 51.068 200.414 50.8369C200.593 50.6025 200.724 50.3828 200.805 50.1777C200.886 49.9727 200.927 49.7529 200.927 49.5186C200.927 49.1963 200.829 48.9424 200.634 48.7568C200.442 48.5713 200.175 48.4785 199.833 48.4785C199.56 48.4785 199.295 48.529 199.038 48.6299C198.784 48.7308 198.489 48.9131 198.154 49.1768L197.534 48.4199C197.931 48.0846 198.316 47.847 198.691 47.707C199.065 47.5671 199.464 47.4971 199.887 47.4971C200.551 47.4971 201.083 47.6712 201.484 48.0195C201.884 48.3646 202.084 48.8301 202.084 49.416C202.084 49.7383 202.026 50.0443 201.909 50.334C201.795 50.6237 201.617 50.9232 201.376 51.2324C201.139 51.5384 200.742 51.9535 200.185 52.4775L198.945 53.6787V53.7275H202.333V54.7383ZM203.817 54.1279C203.817 53.8903 203.879 53.708 204.003 53.5811C204.127 53.4541 204.306 53.3906 204.54 53.3906C204.778 53.3906 204.958 53.4574 205.082 53.5908C205.206 53.721 205.268 53.9001 205.268 54.1279C205.268 54.359 205.204 54.543 205.077 54.6797C204.953 54.8132 204.774 54.8799 204.54 54.8799C204.306 54.8799 204.127 54.8132 204.003 54.6797C203.879 54.5462 203.817 54.3623 203.817 54.1279ZM211.6 51.1689C211.6 52.4092 211.4 53.3304 211 53.9326C210.602 54.5348 209.994 54.8359 209.173 54.8359C208.379 54.8359 207.777 54.5251 207.367 53.9033C206.957 53.2816 206.752 52.3701 206.752 51.1689C206.752 49.9092 206.95 48.9814 207.347 48.3857C207.748 47.7868 208.356 47.4873 209.173 47.4873C209.971 47.4873 210.575 47.7998 210.985 48.4248C211.395 49.0498 211.6 49.9645 211.6 51.1689ZM207.914 51.1689C207.914 52.1423 208.013 52.8372 208.212 53.2539C208.413 53.6706 208.734 53.8789 209.173 53.8789C209.613 53.8789 209.934 53.6673 210.135 53.2441C210.34 52.821 210.443 52.1292 210.443 51.1689C210.443 50.2119 210.34 49.5202 210.135 49.0938C209.934 48.6641 209.613 48.4492 209.173 48.4492C208.734 48.4492 208.413 48.6592 208.212 49.0791C208.013 49.499 207.914 50.1956 207.914 51.1689ZM213.797 49.7383C213.797 50.2233 213.844 50.5846 213.939 50.8223C214.033 51.0599 214.188 51.1787 214.403 51.1787C214.832 51.1787 215.047 50.6986 215.047 49.7383C215.047 48.778 214.832 48.2979 214.403 48.2979C214.188 48.2979 214.033 48.4167 213.939 48.6543C213.844 48.8919 213.797 49.2533 213.797 49.7383ZM215.994 49.7285C215.994 50.4772 215.859 51.0404 215.589 51.418C215.322 51.7923 214.927 51.9795 214.403 51.9795C213.908 51.9795 213.524 51.7858 213.25 51.3984C212.98 51.0078 212.845 50.4512 212.845 49.7285C212.845 48.2409 213.364 47.4971 214.403 47.4971C214.914 47.4971 215.306 47.6908 215.579 48.0781C215.856 48.4622 215.994 49.0124 215.994 49.7285ZM218.446 52.5898C218.446 53.0749 218.493 53.4378 218.587 53.6787C218.685 53.9196 218.841 54.04 219.056 54.04C219.482 54.04 219.696 53.5566 219.696 52.5898C219.696 51.6361 219.482 51.1592 219.056 51.1592C218.841 51.1592 218.685 51.2764 218.587 51.5107C218.493 51.7451 218.446 52.1048 218.446 52.5898ZM220.643 52.5898C220.643 53.3385 220.508 53.9001 220.237 54.2744C219.967 54.6488 219.573 54.8359 219.056 54.8359C218.561 54.8359 218.177 54.6439 217.904 54.2598C217.63 53.8724 217.493 53.3158 217.493 52.5898C217.493 51.1022 218.014 50.3584 219.056 50.3584C219.557 50.3584 219.946 50.5505 220.223 50.9346C220.503 51.3187 220.643 51.8704 220.643 52.5898ZM219.193 47.5996L215.233 54.7383H214.285L218.245 47.5996H219.193Z" fill="#575A5C"/>
<rect x="197" y="58.7383" width="18" height="55.9977" fill="#72CAA5"/>
<path d="M255.452 31.2402C255.452 31.6927 255.32 32.0703 255.056 32.373C254.793 32.6725 254.422 32.8743 253.943 32.9785V33.0176C254.516 33.0892 254.946 33.2682 255.232 33.5547C255.519 33.8379 255.662 34.2155 255.662 34.6875C255.662 35.3743 255.419 35.9049 254.934 36.2793C254.449 36.6504 253.759 36.8359 252.864 36.8359C252.073 36.8359 251.406 36.7074 250.862 36.4502V35.4297C251.165 35.5794 251.485 35.695 251.824 35.7764C252.163 35.8577 252.488 35.8984 252.801 35.8984C253.354 35.8984 253.767 35.7959 254.041 35.5908C254.314 35.3857 254.451 35.0684 254.451 34.6387C254.451 34.2578 254.3 33.9779 253.997 33.7988C253.694 33.6198 253.219 33.5303 252.571 33.5303H251.951V32.5977H252.581C253.72 32.5977 254.29 32.2038 254.29 31.416C254.29 31.11 254.191 30.874 253.992 30.708C253.793 30.542 253.5 30.459 253.113 30.459C252.843 30.459 252.582 30.498 252.332 30.5762C252.081 30.651 251.785 30.7992 251.443 31.0205L250.882 30.2197C251.536 29.738 252.296 29.4971 253.162 29.4971C253.881 29.4971 254.443 29.6517 254.846 29.9609C255.25 30.2702 255.452 30.6966 255.452 31.2402ZM259.416 32.2803C260.136 32.2803 260.705 32.4707 261.125 32.8516C261.545 33.2324 261.755 33.7516 261.755 34.4092C261.755 35.1709 261.516 35.7666 261.038 36.1963C260.562 36.6227 259.885 36.8359 259.006 36.8359C258.209 36.8359 257.582 36.7074 257.126 36.4502V35.4102C257.39 35.5599 257.693 35.6755 258.035 35.7568C258.376 35.8382 258.694 35.8789 258.987 35.8789C259.504 35.8789 259.898 35.7633 260.168 35.5322C260.439 35.3011 260.574 34.9626 260.574 34.5166C260.574 33.6637 260.03 33.2373 258.943 33.2373C258.79 33.2373 258.601 33.2536 258.376 33.2861C258.152 33.3154 257.955 33.3496 257.786 33.3887L257.273 33.0859L257.546 29.5996H261.257V30.6201H258.557L258.396 32.3877C258.51 32.3682 258.648 32.3454 258.811 32.3193C258.977 32.2933 259.179 32.2803 259.416 32.2803ZM263.317 36.1279C263.317 35.8903 263.379 35.708 263.503 35.5811C263.627 35.4541 263.806 35.3906 264.04 35.3906C264.278 35.3906 264.458 35.4574 264.582 35.5908C264.706 35.721 264.768 35.9001 264.768 36.1279C264.768 36.359 264.704 36.543 264.577 36.6797C264.453 36.8132 264.274 36.8799 264.04 36.8799C263.806 36.8799 263.627 36.8132 263.503 36.6797C263.379 36.5462 263.317 36.3623 263.317 36.1279ZM269.63 36.7383H268.483V32.1289C268.483 31.5788 268.496 31.1426 268.522 30.8203C268.447 30.8984 268.354 30.9847 268.244 31.0791C268.136 31.1735 267.772 31.473 267.15 31.9775L266.574 31.25L268.673 29.5996H269.63V36.7383ZM273.297 31.7383C273.297 32.2233 273.344 32.5846 273.439 32.8223C273.533 33.0599 273.688 33.1787 273.903 33.1787C274.332 33.1787 274.547 32.6986 274.547 31.7383C274.547 30.778 274.332 30.2979 273.903 30.2979C273.688 30.2979 273.533 30.4167 273.439 30.6543C273.344 30.8919 273.297 31.2533 273.297 31.7383ZM275.494 31.7285C275.494 32.4772 275.359 33.0404 275.089 33.418C274.822 33.7923 274.427 33.9795 273.903 33.9795C273.408 33.9795 273.024 33.7858 272.75 33.3984C272.48 33.0078 272.345 32.4512 272.345 31.7285C272.345 30.2409 272.864 29.4971 273.903 29.4971C274.414 29.4971 274.806 29.6908 275.079 30.0781C275.356 30.4622 275.494 31.0124 275.494 31.7285ZM277.946 34.5898C277.946 35.0749 277.993 35.4378 278.087 35.6787C278.185 35.9196 278.341 36.04 278.556 36.04C278.982 36.04 279.196 35.5566 279.196 34.5898C279.196 33.6361 278.982 33.1592 278.556 33.1592C278.341 33.1592 278.185 33.2764 278.087 33.5107C277.993 33.7451 277.946 34.1048 277.946 34.5898ZM280.143 34.5898C280.143 35.3385 280.008 35.9001 279.737 36.2744C279.467 36.6488 279.073 36.8359 278.556 36.8359C278.061 36.8359 277.677 36.6439 277.404 36.2598C277.13 35.8724 276.993 35.3158 276.993 34.5898C276.993 33.1022 277.514 32.3584 278.556 32.3584C279.057 32.3584 279.446 32.5505 279.723 32.9346C280.003 33.3187 280.143 33.8704 280.143 34.5898ZM278.693 29.5996L274.733 36.7383H273.785L277.745 29.5996H278.693Z" fill="#C6C7C8"/>
<rect opacity="0.2" x="257" y="40.7383" width="17" height="73.997" fill="#72CAA5"/>
<path d="M246.426 168.54V167.563H248.936V168.54H246.426ZM254.975 170.732H250.137V169.863L251.977 168.013C252.521 167.456 252.881 167.062 253.056 166.831C253.235 166.597 253.366 166.377 253.447 166.172C253.528 165.967 253.569 165.747 253.569 165.513C253.569 165.19 253.471 164.937 253.276 164.751C253.084 164.565 252.817 164.473 252.475 164.473C252.202 164.473 251.937 164.523 251.679 164.624C251.426 164.725 251.131 164.907 250.796 165.171L250.176 164.414C250.573 164.079 250.958 163.841 251.333 163.701C251.707 163.561 252.106 163.491 252.529 163.491C253.193 163.491 253.725 163.665 254.126 164.014C254.526 164.359 254.726 164.824 254.726 165.41C254.726 165.732 254.668 166.038 254.551 166.328C254.437 166.618 254.259 166.917 254.018 167.227C253.781 167.533 253.384 167.948 252.827 168.472L251.587 169.673V169.722H254.975V170.732ZM261.088 170.732H256.249V169.863L258.09 168.013C258.634 167.456 258.994 167.062 259.169 166.831C259.348 166.597 259.479 166.377 259.56 166.172C259.641 165.967 259.682 165.747 259.682 165.513C259.682 165.19 259.584 164.937 259.389 164.751C259.197 164.565 258.93 164.473 258.588 164.473C258.315 164.473 258.05 164.523 257.792 164.624C257.538 164.725 257.244 164.907 256.909 165.171L256.288 164.414C256.686 164.079 257.071 163.841 257.446 163.701C257.82 163.561 258.219 163.491 258.642 163.491C259.306 163.491 259.838 163.665 260.239 164.014C260.639 164.359 260.839 164.824 260.839 165.41C260.839 165.732 260.781 166.038 260.663 166.328C260.55 166.618 260.372 166.917 260.131 167.227C259.894 167.533 259.496 167.948 258.94 168.472L257.7 169.673V169.722H261.088V170.732ZM262.572 170.122C262.572 169.884 262.634 169.702 262.758 169.575C262.882 169.448 263.061 169.385 263.295 169.385C263.533 169.385 263.713 169.451 263.837 169.585C263.961 169.715 264.022 169.894 264.022 170.122C264.022 170.353 263.959 170.537 263.832 170.674C263.708 170.807 263.529 170.874 263.295 170.874C263.061 170.874 262.882 170.807 262.758 170.674C262.634 170.54 262.572 170.356 262.572 170.122ZM266.327 170.732L269.149 164.614H265.438V163.604H270.375V164.404L267.567 170.732H266.327ZM276.468 167.163C276.468 168.403 276.268 169.325 275.867 169.927C275.47 170.529 274.862 170.83 274.041 170.83C273.247 170.83 272.645 170.519 272.235 169.897C271.824 169.276 271.619 168.364 271.619 167.163C271.619 165.903 271.818 164.976 272.215 164.38C272.615 163.781 273.224 163.481 274.041 163.481C274.839 163.481 275.443 163.794 275.853 164.419C276.263 165.044 276.468 165.959 276.468 167.163ZM272.781 167.163C272.781 168.136 272.881 168.831 273.079 169.248C273.281 169.665 273.602 169.873 274.041 169.873C274.481 169.873 274.801 169.661 275.003 169.238C275.208 168.815 275.311 168.123 275.311 167.163C275.311 166.206 275.208 165.514 275.003 165.088C274.801 164.658 274.481 164.443 274.041 164.443C273.602 164.443 273.281 164.653 273.079 165.073C272.881 165.493 272.781 166.19 272.781 167.163ZM278.665 165.732C278.665 166.217 278.712 166.579 278.806 166.816C278.901 167.054 279.055 167.173 279.27 167.173C279.7 167.173 279.915 166.693 279.915 165.732C279.915 164.772 279.7 164.292 279.27 164.292C279.055 164.292 278.901 164.411 278.806 164.648C278.712 164.886 278.665 165.247 278.665 165.732ZM280.862 165.723C280.862 166.471 280.727 167.035 280.457 167.412C280.19 167.786 279.794 167.974 279.27 167.974C278.776 167.974 278.391 167.78 278.118 167.393C277.848 167.002 277.713 166.445 277.713 165.723C277.713 164.235 278.232 163.491 279.27 163.491C279.781 163.491 280.174 163.685 280.447 164.072C280.724 164.456 280.862 165.007 280.862 165.723ZM283.313 168.584C283.313 169.069 283.36 169.432 283.455 169.673C283.553 169.914 283.709 170.034 283.924 170.034C284.35 170.034 284.563 169.551 284.563 168.584C284.563 167.63 284.35 167.153 283.924 167.153C283.709 167.153 283.553 167.271 283.455 167.505C283.36 167.739 283.313 168.099 283.313 168.584ZM285.511 168.584C285.511 169.333 285.375 169.894 285.105 170.269C284.835 170.643 284.441 170.83 283.924 170.83C283.429 170.83 283.045 170.638 282.771 170.254C282.498 169.867 282.361 169.31 282.361 168.584C282.361 167.096 282.882 166.353 283.924 166.353C284.425 166.353 284.814 166.545 285.091 166.929C285.371 167.313 285.511 167.865 285.511 168.584ZM284.06 163.594L280.1 170.732H279.153L283.113 163.594H284.06Z" fill="#C6C7C8"/>
<rect opacity="0.2" x="257" y="118.734" width="17" height="39.9984" fill="#FF896E"/>
</svg>
