<svg width="188" height="25" viewBox="0 0 188 25" fill="none" xmlns="http://www.w3.org/2000/svg">
    <g clip-path="url(#icavc88d2a)" fill-rule="evenodd" clip-rule="evenodd" fill="#780000">
        <path d="m100.839 24.676.143-.645c-.17-.013-.361-.034-.572-.061a3.225 3.225 0 0 1-.573-.123 1.232 1.232 0 0 1-.455-.235.54.54 0 0 1-.2-.44c0-.088.012-.208.036-.358.024-.15.056-.31.097-.48l.594-2.68a4.37 4.37 0 0 0 1.002.532c.375.143.856.215 1.442.215.729 0 1.44-.16 2.132-.481.692-.32 1.335-.811 1.928-1.473.532-.6.958-1.309 1.278-2.127a7.048 7.048 0 0 0 .481-2.598c0-1.193-.288-2.142-.864-2.848-.576-.706-1.382-1.058-2.419-1.058-.525 0-1.051.14-1.58.419a7.031 7.031 0 0 0-1.488 1.064h-.082c-.061-.43-.215-.766-.46-1.008-.245-.242-.607-.363-1.084-.363-.293 0-.648.063-1.064.19-.416.125-.883.304-1.4.536l-.154.655c.13-.034.31-.08.542-.138.232-.058.423-.087.573-.087.395 0 .652.065.772.194.119.13.179.385.179.767 0 .191-.024.418-.072.68a28.92 28.92 0 0 1-.153.783l-2.138 9.409a1.582 1.582 0 0 1-.27.618.945.945 0 0 1-.507.343c-.17.048-.351.082-.542.102-.191.02-.395.038-.614.051l-.143.645h5.635zm1.422-4.981a1.93 1.93 0 0 1-1.345-.506c-.372-.338-.581-.7-.629-1.09l1.309-5.798c.546-.525 1.007-.883 1.386-1.074.378-.19.724-.286 1.038-.286.423 0 .764.073 1.023.22.259.146.463.352.613.618.143.239.247.54.312.905s.097.728.097 1.09c0 .797-.093 1.552-.281 2.265a6.9 6.9 0 0 1-.803 1.907 4.1 4.1 0 0 1-1.207 1.279c-.47.313-.975.47-1.513.47zm9.685.44 1.646-7.323c.382-.43.742-.774 1.079-1.033.338-.259.64-.453.906-.583.265-.13.492-.216.68-.26.187-.045.322-.067.404-.067-.109.26-.215.52-.317.782-.103.263-.154.5-.154.711 0 .225.092.43.276.614.184.184.461.276.829.276.272 0 .482-.05.629-.148.146-.1.281-.24.404-.425.102-.15.18-.339.235-.567.054-.229.082-.438.082-.63 0-.354-.036-.625-.108-.812a1.332 1.332 0 0 0-.332-.496 1.236 1.236 0 0 0-.522-.277 2.333 2.333 0 0 0-1.948.337c-.419.28-1.035.771-1.846 1.474h-.061c0-.594-.116-1.038-.348-1.335-.232-.297-.62-.445-1.166-.445-.293 0-.644.058-1.053.174-.409.116-.88.293-1.412.532l-.153.654c.129-.034.31-.076.542-.127.232-.052.423-.077.573-.077.388 0 .647.065.777.194.13.13.194.385.194.767 0 .157-.032.399-.097.726-.065.327-.114.573-.148.737l-1.493 6.627h1.902zm11.035.286c.88 0 1.728-.249 2.547-.746a6.408 6.408 0 0 0 2.045-1.995l-.583-.43c-.505.676-1.018 1.184-1.539 1.525-.522.34-1.123.51-1.805.51-.771 0-1.355-.284-1.754-.853-.399-.57-.598-1.393-.598-2.47.784-.095 1.5-.215 2.147-.358.648-.143 1.289-.33 1.923-.562.866-.307 1.525-.72 1.979-1.238.453-.518.68-1.138.68-1.861 0-.62-.237-1.13-.711-1.53-.474-.398-1.201-.597-2.183-.597-.887 0-1.696.194-2.429.583a5.83 5.83 0 0 0-1.856 1.534 7.126 7.126 0 0 0-1.182 2.142c-.269.78-.404 1.6-.404 2.46 0 1.24.319 2.199.957 2.874.637.675 1.559 1.012 2.766 1.012zm-1.626-5.175c.184-1.343.622-2.465 1.314-3.364.692-.9 1.447-1.35 2.265-1.35.144 0 .283.01.42.03.136.02.266.072.388.154.116.075.212.189.287.342.075.154.112.363.112.63 0 .633-.138 1.18-.414 1.64-.276.46-.697.838-1.263 1.13-.396.205-.893.37-1.493.497-.6.126-1.139.223-1.616.291zm5.134 9.43c1.091 0 2.151-.481 3.181-1.442 1.029-.962 1.704-2.2 2.025-3.713l1.799-8.447h2.547l.215-.931h-2.567l.225-1.084c.293-1.398.62-2.397.982-2.997.361-.6.777-.91 1.247-.93.123.184.225.35.307.5.082.15.191.311.327.481.123.15.263.271.42.363.157.093.341.139.552.139.355 0 .615-.113.782-.338a1.27 1.27 0 0 0 .251-.777c0-.348-.142-.636-.425-.864-.282-.229-.724-.343-1.324-.343-.518 0-1.058.124-1.621.373a5.043 5.043 0 0 0-1.508 1.028 7.12 7.12 0 0 0-1.207 1.616 7.406 7.406 0 0 0-.777 2.137l-.144.696h-1.974l-.214.93h1.994L129.7 19.91c-.272 1.24-.595 2.195-.966 2.863-.372.669-.82 1.023-1.345 1.064a42.762 42.762 0 0 1-.312-.511 4.055 4.055 0 0 0-.322-.47 1.697 1.697 0 0 0-.425-.359 1.067 1.067 0 0 0-.557-.143c-.334 0-.59.113-.767.338a1.222 1.222 0 0 0-.266.777c0 .348.142.636.424.864.283.228.725.343 1.325.343zm13.254-4.255c.88 0 1.729-.249 2.547-.746a6.408 6.408 0 0 0 2.045-1.995l-.583-.43c-.504.676-1.017 1.184-1.539 1.525-.521.34-1.123.51-1.805.51-.77 0-1.355-.284-1.754-.853-.399-.57-.598-1.393-.598-2.47.784-.095 1.5-.215 2.147-.358.648-.143 1.289-.33 1.923-.562.866-.307 1.526-.72 1.979-1.238.454-.518.68-1.138.68-1.861 0-.62-.237-1.13-.711-1.53-.473-.398-1.201-.597-2.183-.597-.886 0-1.696.194-2.429.583a5.83 5.83 0 0 0-1.856 1.534 7.124 7.124 0 0 0-1.181 2.142c-.27.78-.404 1.6-.404 2.46 0 1.24.318 2.199.956 2.874.637.675 1.559 1.012 2.766 1.012zm-1.626-5.175c.184-1.343.622-2.465 1.314-3.364.692-.9 1.447-1.35 2.266-1.35.143 0 .283.01.419.03.136.02.266.072.389.154.116.075.211.189.286.342.075.154.112.363.112.63 0 .633-.138 1.18-.414 1.64-.276.46-.697.838-1.263 1.13-.395.205-.893.37-1.493.497-.6.126-1.139.223-1.616.291zm10.135 4.889 1.647-7.323c.382-.43.741-.774 1.079-1.033.337-.259.639-.453.905-.583a3.39 3.39 0 0 1 .68-.26c.187-.045.322-.067.404-.067-.109.26-.215.52-.317.782-.102.263-.153.5-.153.711 0 .225.092.43.276.614.184.184.46.276.828.276.273 0 .482-.05.629-.148.147-.1.281-.24.404-.425.102-.15.181-.339.235-.567a2.7 2.7 0 0 0 .082-.63c0-.354-.036-.625-.107-.812a1.347 1.347 0 0 0-.333-.496 1.239 1.239 0 0 0-.521-.277 2.453 2.453 0 0 0-.634-.081c-.457 0-.895.14-1.315.419-.419.28-1.034.77-1.846 1.473h-.061c0-.594-.116-1.038-.348-1.335-.231-.297-.62-.445-1.166-.445-.293 0-.644.058-1.053.174-.409.116-.88.293-1.411.532l-.154.654c.13-.034.31-.076.542-.127.232-.052.423-.077.573-.077.389 0 .648.065.777.194.13.13.195.385.195.767 0 .157-.033.399-.098.726-.064.327-.114.573-.148.737l-1.493 6.627h1.902zm9.665 0 1.646-7.323c.382-.43.742-.774 1.079-1.033.338-.259.64-.453.906-.583.265-.13.492-.216.68-.26.187-.045.322-.067.404-.067-.109.26-.215.52-.317.782-.103.263-.154.5-.154.711 0 .225.092.43.276.614.184.184.461.276.829.276.272 0 .482-.05.629-.148.146-.1.281-.24.404-.425.102-.15.18-.339.235-.567.054-.229.082-.438.082-.63 0-.354-.036-.625-.108-.812a1.332 1.332 0 0 0-.332-.496 1.236 1.236 0 0 0-.522-.277 2.333 2.333 0 0 0-1.948.337c-.419.28-1.035.771-1.846 1.474h-.061c0-.594-.116-1.038-.348-1.335-.232-.297-.62-.445-1.166-.445-.293 0-.644.058-1.053.174-.409.116-.88.293-1.412.532l-.153.654c.129-.034.31-.076.542-.127.232-.052.423-.077.573-.077.388 0 .647.065.777.194.129.13.194.385.194.767 0 .157-.032.399-.097.726-.065.327-.114.573-.148.737l-1.493 6.627h1.902zm11.035.286c.88 0 1.728-.249 2.547-.746a6.408 6.408 0 0 0 2.045-1.995l-.583-.43c-.505.676-1.018 1.184-1.539 1.525-.522.34-1.123.51-1.805.51-.771 0-1.355-.284-1.754-.853-.399-.57-.599-1.393-.599-2.47.785-.095 1.5-.215 2.148-.358.648-.143 1.289-.33 1.923-.562.866-.307 1.525-.72 1.979-1.238.453-.518.68-1.138.68-1.861 0-.62-.237-1.13-.711-1.53-.474-.398-1.202-.597-2.183-.597-.887 0-1.696.194-2.429.583-.733.388-1.352.9-1.857 1.534a7.145 7.145 0 0 0-1.181 2.142c-.269.78-.404 1.6-.404 2.46 0 1.24.319 2.199.957 2.874.637.675 1.559 1.012 2.766 1.012zm-1.626-5.175c.184-1.343.622-2.465 1.314-3.364.692-.9 1.447-1.35 2.265-1.35.144 0 .283.01.42.03.136.02.266.072.388.154.116.075.212.189.287.342.075.154.112.363.112.63 0 .633-.138 1.18-.414 1.64-.276.46-.697.838-1.263 1.13-.396.205-.893.37-1.493.497-.6.126-1.139.223-1.616.291zm10.963 5.175c.403 0 .742-.054 1.018-.163a5.66 5.66 0 0 0 .905-.47 5.39 5.39 0 0 0 .747-.548c.238-.208.433-.377.583-.506h.071c0 .538.145.935.435 1.191.29.256.68.384 1.171.384.32 0 .668-.052 1.043-.154.375-.102.849-.283 1.422-.542l.153-.654c-.13.047-.314.092-.552.133-.239.04-.423.061-.553.061-.388 0-.664-.07-.828-.21-.164-.14-.245-.404-.245-.792 0-.15.029-.37.087-.66.057-.29.114-.547.168-.772l2.833-12.262-.102-.154-4.142.235-.143.624c.232.028.491.051.777.072.286.02.511.061.675.123a.859.859 0 0 1 .414.286c.099.13.148.317.148.562 0 .123-.008.236-.025.338a8.61 8.61 0 0 1-.087.43l-.798 3.477c-.3-.178-.682-.328-1.145-.45a5.458 5.458 0 0 0-1.401-.184 4.85 4.85 0 0 0-2.255.557 6.03 6.03 0 0 0-1.846 1.457c-.525.62-.94 1.33-1.243 2.128a6.942 6.942 0 0 0-.455 2.485c0 1.227.281 2.197.844 2.91.562.712 1.338 1.068 2.326 1.068zm.788-1.145c-.396 0-.713-.074-.951-.22a1.486 1.486 0 0 1-.553-.598 2.965 2.965 0 0 1-.276-.89 7.68 7.68 0 0 1-.071-1.105c0-.743.102-1.484.307-2.224.204-.74.477-1.372.818-1.897a4.684 4.684 0 0 1 1.232-1.31c.467-.327.963-.49 1.488-.49.341 0 .636.056.885.168.249.113.451.254.608.425.137.15.249.319.338.506.088.188.14.38.153.578l-1.288 5.543c-.539.56-1.028.951-1.468 1.176-.44.225-.847.338-1.222.338zM43.094 16.434a5.242 5.242 0 0 1-3.301 1.151c-2.933 0-5.215-2.336-5.215-5.318 0-2.984 2.282-5.321 5.215-5.321 1.21 0 2.353.4 3.3 1.152l.048.04 2.263-2.262-.056-.049a8.5 8.5 0 0 0-5.555-2.074c-4.748 0-8.608 3.82-8.608 8.514 0 4.695 3.86 8.513 8.608 8.513a8.496 8.496 0 0 0 5.556-2.075l.055-.049-2.263-2.26-.047.038zm5.38 3.874h3.247V4.226h-3.248v16.082zM64.548 14.5c-.116-.207-5.674-10.305-5.674-10.305h-3.174v16.08h3.248v-9.606c.24.42 5.6 9.736 5.6 9.736l5.583-9.734v9.604h3.246V4.195h-3.175S64.666 14.293 64.55 14.5zm19.062 2.895h-3.18V13.61h3.18c1.486 0 2.015.974 2.015 1.882 0 .92-.53 1.903-2.015 1.903zM80.43 7.14h2.977c1.25 0 1.993.66 1.993 1.769 0 1.107-.743 1.772-1.993 1.772h-2.977V7.14zm6.331 4.926a3.794 3.794 0 0 0 1.887-3.292c0-2.804-1.913-4.546-4.993-4.546h-6.472v16.08h6.742c3.05 0 4.948-1.784 4.948-4.659 0-2.16-1.271-3.158-2.112-3.583z"/>
    </g>
    <path fill-rule="evenodd" clip-rule="evenodd" d="M0 25h25V0H0v25z" fill="#780000"/>
    <path d="M16.68 4.737H3.384L9.276 12.5h13.296L16.68 4.737z" fill="#fff"/>
    <path d="M22.572 12.5H9.276l-5.892 7.763H16.68l5.892-7.763z" fill="red"/>
    <defs>
        <clipPath id="icavc88d2a">
            <path fill="#fff" transform="translate(31.185 3.753)" d="M0 0h156v21H0z"/>
        </clipPath>
    </defs>
</svg>
