<svg width="121" height="83" viewBox="0 0 121 83" fill="none" xmlns="http://www.w3.org/2000/svg">
    <path opacity=".3" fill-rule="evenodd" clip-rule="evenodd" d="M48.79 77.108s-14.603-.015-14.577.367c.087 1.273 11.572.524 12.516.906.464.189-.051.596.765.86 3.244 1.05 14.536.098 18.565.108 10.98.02 13.76.494 15.035.555 3.576.168 13.7.102 16.545.071 5.86-.066 21.62.209 21.284-.86-.148-.484-15.281-1.498-17.856-1.63-2.204-.112-3.718-.78-5.697-1.171-2.77-.55-5.804-.881-8.793-1.09-12.516-.881-25.353 1.171-37.788 1.884z" fill="#333739"/>
    <path opacity=".1" d="M111.512 78.952s14.597-18.573 2.469-38.678c-10.762-17.84-26.899-13.277-36.105-6.035-3.922 3.08-11.628-2.964-21.253-21.12C43.507-11.64-1.967 3.379 6.325 41.466c4.014 18.43-12.21 19.103-3.942 37.528l109.129-.041z" fill="#333739"/>
    <path d="m22.916 48.784 1.352-8.362" stroke="#F66" stroke-miterlimit="10"/>
    <path d="M69.787 78.7h-28.24a4.665 4.665 0 0 1-4.667-4.659V5.734a4.665 4.665 0 0 1 4.667-4.66h28.235a4.665 4.665 0 0 1 4.667 4.66v68.312a4.657 4.657 0 0 1-4.662 4.655z" fill="#fff" stroke="#333739" stroke-miterlimit="10"/>
    <path d="M61.994 3.157H49.855a.973.973 0 0 1-.974-.973v-1.11h14.087v1.11a.967.967 0 0 1-.974.973z" fill="#333739"/>
    <path opacity=".1" d="M71.037 21.395H40.291c-.734 0-1.326-.59-1.326-1.324V7.609c0-.733.592-1.324 1.326-1.324h30.745c.734 0 1.326.59 1.326 1.324v12.462c0 .733-.592 1.324-1.326 1.324z" fill="#333739"/>
    <path d="M64.932 10.196H42.46a.245.245 0 0 1-.245-.244v-.555c0-.133.107-.245.245-.245h22.472c.132 0 .245.107.245.245v.555a.248.248 0 0 1-.245.244zM65.972 12.798H43.501a.245.245 0 0 1-.245-.245v-.555c0-.132.107-.244.245-.244h22.471c.133 0 .245.107.245.244v.555a.242.242 0 0 1-.245.245z" fill="#fff"/>
    <path d="M46.703 18.792H43.47a.99.99 0 0 1-.99-.988V14.57a.99.99 0 0 1 .99-.988h3.233a.99.99 0 0 1 .99.988v3.229a.99.99 0 0 1-.99.993zM54.007 18.792h-3.233a.99.99 0 0 1-.99-.988V14.57a.99.99 0 0 1 .99-.988h3.233a.99.99 0 0 1 .99.988v3.229a.99.99 0 0 1-.99.993zM61.31 18.792h-3.233a.99.99 0 0 1-.99-.988V14.57a.99.99 0 0 1 .99-.988h3.233a.99.99 0 0 1 .99.988v3.229a.984.984 0 0 1-.99.993zM68.619 18.792h-3.234a.99.99 0 0 1-.989-.988V14.57a.99.99 0 0 1 .99-.988h3.233a.99.99 0 0 1 .99.988v3.229a.99.99 0 0 1-.99.993z" stroke="#F66" stroke-width=".75" stroke-miterlimit="10"/>
    <path opacity=".7" d="M45.087 16.965a.78.78 0 1 0 0-1.56.78.78 0 0 0 0 1.56zM52.39 16.965a.78.78 0 1 0 .001-1.56.78.78 0 0 0 0 1.56zM59.694 16.965a.78.78 0 1 0 .001-1.56.78.78 0 0 0-.001 1.56zM66.997 16.965a.78.78 0 1 0 .001-1.56.78.78 0 0 0 0 1.56z" fill="#333739"/>
    <path opacity=".1" d="M68.797 25.84H40.063a.245.245 0 0 1-.245-.244v-.555c0-.132.107-.244.245-.244h28.73c.132 0 .244.107.244.244v.555a.24.24 0 0 1-.24.245zM71.404 29.485h-28.73a.245.245 0 0 1-.245-.244v-.555c0-.133.107-.245.245-.245h28.73c.132 0 .244.107.244.245v.555a.245.245 0 0 1-.244.244zM68.797 33.653H40.063a.245.245 0 0 1-.245-.244v-.555c0-.133.107-.245.245-.245h28.73c.132 0 .244.107.244.245v.555a.237.237 0 0 1-.24.244zM70.363 37.821H41.63a.245.245 0 0 1-.245-.244v-.555c0-.133.107-.245.245-.245h28.73c.132 0 .244.107.244.245v.555a.24.24 0 0 1-.24.244zM46.361 42.508h-5.773a.245.245 0 0 1-.245-.245v-.55c0-.132.107-.244.245-.244h5.773c.133 0 .245.107.245.244v.555c0 .133-.112.24-.245.24zM55.231 42.508h-5.773a.245.245 0 0 1-.245-.245v-.55c0-.132.107-.244.245-.244h5.773c.133 0 .245.107.245.244v.555c0 .133-.112.24-.245.24zM65.666 42.508h-5.773a.245.245 0 0 1-.245-.245v-.55c0-.132.107-.244.245-.244h5.773c.133 0 .245.107.245.244v.555c0 .133-.112.24-.245.24zM69.838 48.243h-28.73a.245.245 0 0 1-.244-.244v-.555c0-.133.107-.245.245-.245h28.73c.132 0 .244.107.244.245v.555a.245.245 0 0 1-.245.244zM69.838 57.099h-28.73a.245.245 0 0 1-.244-.245V56.3c0-.132.107-.244.245-.244h28.73c.132 0 .244.107.244.244v.555a.245.245 0 0 1-.245.245zM66.87 69.393H44.3a1.24 1.24 0 0 1-1.239-1.237v-3.254a1.24 1.24 0 0 1 1.24-1.238h22.563c.683 0 1.24.555 1.24 1.238v3.254a1.232 1.232 0 0 1-1.235 1.237z" fill="#333739"/>
    <path d="M26.334 28.577s1.285-1.161 1.749-1.884c.464-.723.581-1.258.581-1.258l5.243-.626s0 .626.582 1.258c.556.595 2.218.743 2.218.743v7.563l-7.461 2.378-2.912-2.516v-5.658z" fill="#FFDDC5"/>
    <path d="M37.008 25.196s-9.433 3.99-12.274-1.83c-2.628-5.384-5.811-8.437.003-11.68 5.814-3.245 8.058-1.59 9.481.127 1.423 1.716 5.131 12.008 2.79 13.383z" fill="#FFDDC5"/>
    <path d="M31.377 6.094c3.734 1.792 3.662 3.91 1.112 5.148-2.55 1.243-6.447 2.684-6.447 2.684s2.79 9.421 1.485 7.38c-1.306-2.038-.291-2.863-2-3.937-1.703-1.075-2.35.366-1.866 1.477.484 1.115 2.259 6.269 2.259 6.269s-3.943-4.716-5.003-8.108c-1.056-3.392-.76-6.717 2.856-7.537 3.62-.82 4.452.102 6.345-1.11 1.892-1.207 1.26-2.266 1.26-2.266z" fill="#333739"/>
    <path d="m32.918 10.52.892-.54 1.438 3.703-2.356-2.898.026-.265z" fill="#333739"/>
    <path d="m35.345 26.664 1.622-.27-.03 45.788H23.039V29.144l3.524-.728s-.54 5.399 4.865 5.129c5.402-.27 3.917-6.88 3.917-6.88z" fill="#fff"/>
    <path d="m36.967 26.395-.03 45.787h-2.331l-.24-39.88c1.79-1.594.98-5.638.98-5.638l1.621-.27z" fill="#F66"/>
    <path d="m38.048 57.456-16.483-3.778 1.08-5.128-8.338-2.694-1.658 11.055s.556 3.24 3.928 3.51l21.477 2.403v-5.368h-.006z" fill="#FFDDC5"/>
    <path d="M30.577 33.623 29.8 72.255H21.29s.27-5.668-.178-9.36c-.174-1.43 1.724-14.03 1.724-14.03l-9.854-2.434 2.652-12.813s.872-2.867 2.76-3.392l7.966-1.742c.005.01.189 5.006 4.218 5.139z" fill="#F66"/>
    <path d="M22.207 72.18v6.213l23.838.188V72.18H22.207z" fill="#333739"/>
    <path d="M44.245 61.007s-.306.57-.54.81c-.235.24-1.082.54-1.082.54s-1.188.677-1.621.81c-.434.132-1.184 0-1.184 0h-.632l-1.428-.29v-5.373l1.351.27.811-.27.811-.54 1.892-3.24.811-1.079.541-.54h.714l.367.27v.52l-.27.56-.694 1.849 4.744-1.31h.54l.54.27v.54l-.27.27-4.054 1.35 5.136-.27h.27l.27.27v.591l-.27.219-.54.27-1.352.27-3.514.54 4.865.27.541.54v.539l-.81.54h-.455l-3.87-.27 2.973.81.27.27v.27l-.27.27-.27.27h-.531" fill="#FFDDC5"/>
    <path d="M12.772 57.075s.556 3.239 3.927 3.509l21.477 2.403v-5.372l-16.484-3.78" fill="#FFDDC5"/>
    <path fill-rule="evenodd" clip-rule="evenodd" d="M92.826 65.952c2.94.447 4.773-3.933 5.806-5.94.59-1.145 1.197-2.341 2.041-3.322 1.762-2.043 4.078-2.449 4.386-1.616.258.696-.686.66-1.647 1.585a4.105 4.105 0 0 0-1.253 2.498c-.551 4.363-.397 5.753-2.153 8.987-.417.768-.877 1.549-1.507 2.165-3.025 2.959-5.954-.992-5.673-4.357" fill="#EF383D"/>
    <mask id="2fxe8bxlja" style="mask-type:alpha" maskUnits="userSpaceOnUse" x="92" y="54" width="14" height="18">
        <path fill-rule="evenodd" clip-rule="evenodd" d="M100.673 56.691c-.844.98-1.452 2.176-2.041 3.321-1.033 2.008-2.866 6.387-5.806 5.94-.282 3.366 2.649 7.317 5.673 4.358.63-.617 1.09-1.398 1.508-2.166 1.755-3.233 1.602-4.624 2.152-8.986a4.101 4.101 0 0 1 1.254-2.499c.96-.925 1.904-.888 1.646-1.585-.099-.266-.402-.406-.827-.406-.905 0-2.361.633-3.559 2.023" fill="#fff"/>
    </mask>
    <g mask="url(#2fxe8bxlja)">
        <path fill-rule="evenodd" clip-rule="evenodd" d="M106.176 54.79c-3.065.062-5.104 2.909-5.751 5.63-.326 1.374-.387 2.796-.728 4.17-.629 2.53-1.83 4.973-3.605 6.9 7.384-1.272 5.217-6.16 7.454-11.414.31-.728.693-1.41 1.123-2.074.548-.844 1.846-2.05 1.507-3.213" fill="#BC2025"/>
    </g>
    <mask id="fztvgcpsqb" style="mask-type:alpha" maskUnits="userSpaceOnUse" x="92" y="54" width="14" height="18">
        <path fill-rule="evenodd" clip-rule="evenodd" d="M100.673 56.691c-.844.98-1.452 2.176-2.041 3.321-1.033 2.008-2.866 6.387-5.806 5.94-.282 3.366 2.649 7.317 5.673 4.358.63-.617 1.09-1.398 1.508-2.166 1.755-3.233 1.602-4.624 2.152-8.986a4.101 4.101 0 0 1 1.254-2.499c.96-.925 1.904-.888 1.646-1.585-.099-.266-.402-.406-.827-.406-.905 0-2.361.633-3.559 2.023" fill="#fff"/>
    </mask>
    <g mask="url(#fztvgcpsqb)">
        <path fill-rule="evenodd" clip-rule="evenodd" d="M96.756 64.414c1.246-1.29 1.828-3.032 2.58-4.615 1.235-2.606 2.368-4.477 5.138-5.37-1.371-.158-2.456.528-3.427 1.427-1.67 1.548-2.806 3.49-3.93 5.442-.358.622-1.293 2.157-1.393 2.85.238-.055.795.218 1.032.266" fill="#F48EAA"/>
    </g>
    <path fill-rule="evenodd" clip-rule="evenodd" d="M92.846 65.839a.133.133 0 0 0-.097.023.111.111 0 0 0-.047.08h.011c-.17 2.026.805 4.257 2.262 5.133 1.034.622 2.312.581 3.606-.684.257-.25.486-.53.697-.823.311-.435.58-.904.832-1.37.741-1.365 1.145-2.404 1.405-3.475.358-1.476.442-3.011.762-5.552a4.04 4.04 0 0 1 .397-1.32c.234-.467.534-.829.822-1.106.397-.382.792-.596 1.095-.767.228-.13.407-.239.513-.367.122-.15.163-.326.068-.58-.08-.218-.273-.372-.555-.442-.367-.09-.896-.038-1.492.183-.803.297-1.731.896-2.544 1.84-.343.396-.647.83-.927 1.28-.415.667-.777 1.374-1.132 2.063-.604 1.174-1.483 3.166-2.7 4.515-.827.915-1.809 1.535-2.976 1.358v.011zm.085.252c-.11 1.904.8 3.967 2.163 4.787.955.573 2.13.515 3.324-.653a5.87 5.87 0 0 0 .67-.792c.305-.428.569-.889.816-1.345.729-1.344 1.127-2.367 1.382-3.42.355-1.47.436-2.998.754-5.526a4.31 4.31 0 0 1 .419-1.398c.248-.494.565-.879.87-1.172.415-.4.827-.625 1.144-.804.195-.11.353-.199.443-.31.073-.089.085-.194.03-.343-.056-.15-.195-.243-.387-.291-.332-.082-.81-.025-1.35.176-.771.285-1.662.864-2.443 1.77-.334.388-.63.811-.903 1.25-.412.663-.77 1.364-1.12 2.048-.612 1.188-1.504 3.202-2.736 4.568-.856.95-1.878 1.586-3.076 1.455z" fill="#333739"/>
    <path fill-rule="evenodd" clip-rule="evenodd" d="M99.434 67.884c.98-1.585 2.205-3.35 4.087-3.915 2.16-.646 4.35.616 4.003 2.907-.45 2.971-4.833 2.663-4.351.082-1.657 2.6-2.764 5.576-2.636 8.7-2.83-1.192-4.19-3.285-2.463-6.1.342-.558.874-1.229 1.36-1.674" fill="#EF383D"/>
    <mask id="mnjgneyghc" style="mask-type:alpha" maskUnits="userSpaceOnUse" x="97" y="63" width="11" height="13">
        <path fill-rule="evenodd" clip-rule="evenodd" d="M104.654 63.8c-.369 0-.752.056-1.133.17-1.883.563-3.107 2.328-4.087 3.913-.487.446-1.018 1.117-1.36 1.675-1.727 2.815-.368 4.908 2.462 6.1-.127-3.124.98-6.1 2.637-8.7-.483 2.58 3.9 2.89 4.351-.083.286-1.886-1.148-3.074-2.869-3.074h-.001" fill="#fff"/>
    </mask>
    <g mask="url(#mnjgneyghc)">
        <path fill-rule="evenodd" clip-rule="evenodd" d="M103.205 67.607c1.1.964 2.913.532 3.391-.857.231-.674.238-1.365-.077-2.015a3.395 3.395 0 0 0-.409-.632c-.057-.07-.114-.137-.172-.204-.027-.033-.125-.09-.083-.098.656-.127 1.54.786 1.81 1.285.992 1.837-.2 4.812-2.257 5.33-1.419.358-2.49-1.337-2.203-2.809" fill="#BC2025"/>
    </g>
    <mask id="uvgq2g5zdd" style="mask-type:alpha" maskUnits="userSpaceOnUse" x="97" y="63" width="11" height="13">
        <path fill-rule="evenodd" clip-rule="evenodd" d="M104.654 63.8c-.369 0-.752.056-1.133.17-1.883.563-3.107 2.328-4.087 3.913-.487.446-1.018 1.117-1.36 1.675-1.727 2.815-.368 4.908 2.462 6.1-.127-3.124.98-6.1 2.637-8.7-.483 2.58 3.9 2.89 4.351-.083.286-1.886-1.148-3.074-2.869-3.074h-.001" fill="#fff"/>
    </mask>
    <g mask="url(#uvgq2g5zdd)">
        <path fill-rule="evenodd" clip-rule="evenodd" d="M99.01 71.141c.146-.895.418-1.764.757-2.604.74-1.836 1.61-3.188 3.405-4.11.854-.437 1.802-.626 2.769-.385-.892-.566-2.185-.286-3.082.183-1.588.83-2.899 2.313-3.593 3.959-.238.568-.649 2.309-.256 2.957" fill="#F48EAA"/>
    </g>
    <mask id="9wh3bes5me" style="mask-type:alpha" maskUnits="userSpaceOnUse" x="97" y="63" width="11" height="13">
        <path fill-rule="evenodd" clip-rule="evenodd" d="M104.654 63.8c-.369 0-.752.056-1.133.17-1.883.563-3.107 2.328-4.087 3.913-.487.446-1.018 1.117-1.36 1.675-1.727 2.815-.368 4.908 2.462 6.1-.127-3.124.98-6.1 2.637-8.7-.483 2.58 3.9 2.89 4.351-.083.286-1.886-1.148-3.074-2.869-3.074h-.001" fill="#fff"/>
    </mask>
    <g mask="url(#9wh3bes5me)">
        <path fill-rule="evenodd" clip-rule="evenodd" d="M99.665 72.95c-.004-.64.076-1.27.2-1.898.383-1.95 1.665-4.967 3.847-5.494.492-.118.987-.101 1.429.167-1.356-.576-2.16.936-2.176 2.06-.022 1.543-.871 2.973-1.242 4.472-.084.334-.141 1.273-.316 1.559-.507.832-1.597-.11-1.742-.867" fill="#BC2025"/>
    </g>
    <path fill-rule="evenodd" clip-rule="evenodd" d="M103.018 67.432a17.555 17.555 0 0 0-1.72 3.714c-.464 1.446-.707 2.957-.645 4.506a.115.115 0 0 1-.05.1.115.115 0 0 1-.112.012c-1.434-.605-2.495-1.441-2.988-2.477-.504-1.059-.423-2.33.474-3.79.173-.284.395-.595.635-.893a7.5 7.5 0 0 1 .745-.806l-.03.018c.593-.958 1.275-1.98 2.134-2.77.585-.536 1.25-.965 2.025-1.197 1.093-.326 2.193-.178 2.99.332.844.54 1.355 1.484 1.169 2.71-.22 1.452-1.334 2.156-2.411 2.223-.768.047-1.514-.234-1.914-.791a1.634 1.634 0 0 1-.302-.891m-2.604 8.044c-.039-1.511.206-2.987.659-4.402.47-1.469 1.166-2.873 1.999-4.182a.12.12 0 0 1 .145-.047.12.12 0 0 1 .074.133c-.092.494.004.899.224 1.205.355.495 1.023.732 1.704.69.976-.06 1.986-.701 2.185-2.017.168-1.116-.292-1.977-1.06-2.468-.743-.475-1.769-.606-2.787-.301-.737.22-1.371.632-1.927 1.143-.842.774-1.508 1.778-2.088 2.718h-.01a.125.125 0 0 1-.02.026v-.008a7.327 7.327 0 0 0-.722.782c-.234.29-.449.593-.618.868-.844 1.377-.936 2.575-.46 3.573.453.95 1.412 1.716 2.702 2.287" fill="#333739"/>
    <path fill-rule="evenodd" clip-rule="evenodd" d="M85.662 65.85c-.835 2.8-7.16 3.47-8.835-1.45-.599-1.76-.9-3.551-1.974-5.103-.735-1.062-1.794-1.99-3.066-2.329-.309-.082-1.061-.267-1.32.053-.295.367.434.828.673 1.031 1.681 1.429 1.866 3.473 2.213 8.768.24 3.656 1.801 4.285 4.339 5.008 6.198 1.769 9.598-4.872 7.97-5.977" fill="#EF383D"/>
    <mask id="lmw14mngdf" style="mask-type:alpha" maskUnits="userSpaceOnUse" x="70" y="56" width="17" height="17">
        <path fill-rule="evenodd" clip-rule="evenodd" d="M70.468 57.022c-.296.367.433.827.672 1.03 1.681 1.429 1.865 3.473 2.213 8.768.24 3.656 1.801 4.285 4.338 5.009 6.2 1.768 9.599-4.873 7.971-5.978-.835 2.799-7.16 3.47-8.835-1.45-.6-1.76-.9-3.552-1.974-5.104-.735-1.062-1.794-1.99-3.066-2.329-.177-.047-.5-.128-.792-.128-.217 0-.417.045-.528.182" fill="#fff"/>
    </mask>
    <g mask="url(#lmw14mngdf)">
        <path fill-rule="evenodd" clip-rule="evenodd" d="M85.662 65.852c-.823 3.461-6.13 3.79-7.992.478-.6-1.067-1.074-2.366-1.358-4.411-.317-2.288-3.098-5.099-4.09-5.561-2.132-.993 1.53.483 2.26 4.482.769 4.218.92 8.26 4.596 9.548 3.87 1.355 7.466 3.405 9.088-.55-1.766-5.749-.313-6.092-2.504-3.986" fill="#BC2025"/>
    </g>
    <mask id="rqneryeaxg" style="mask-type:alpha" maskUnits="userSpaceOnUse" x="70" y="56" width="17" height="17">
        <path fill-rule="evenodd" clip-rule="evenodd" d="M70.468 57.022c-.296.367.433.827.672 1.03 1.681 1.429 1.865 3.473 2.213 8.768.24 3.656 1.801 4.285 4.338 5.009 6.2 1.768 9.599-4.873 7.971-5.978-.835 2.799-7.16 3.47-8.835-1.45-.6-1.76-.9-3.552-1.974-5.104-.735-1.062-1.794-1.99-3.066-2.329-.177-.047-.5-.128-.792-.128-.217 0-.417.045-.528.182" fill="#fff"/>
    </mask>
    <g mask="url(#rqneryeaxg)">
        <path fill-rule="evenodd" clip-rule="evenodd" d="M69.366 57.332c4.558 2.034 2.946 7.47 4.018 12.387.41 1.88 1.967 4.93 3.85 3.987-.603-.692-.606-2.004-1.46-2.543-1.636-1.032-1.818-4.382-1.768-6.68.062-2.816-.977-7.644-4.64-7.151" fill="#F48EAA"/>
    </g>
    <path clip-rule="evenodd" d="M85.662 65.85c-.835 2.8-7.16 3.47-8.835-1.45-.599-1.76-.9-3.551-1.974-5.103-.735-1.062-1.794-1.99-3.066-2.329-.309-.082-1.061-.267-1.32.053-.295.367.434.828.673 1.031 1.681 1.429 1.866 3.473 2.213 8.768.24 3.656 1.801 4.285 4.339 5.008 6.198 1.769 9.598-4.872 7.97-5.977z" stroke="#333739" stroke-width=".481" stroke-linecap="round" stroke-linejoin="round"/>
    <path fill-rule="evenodd" clip-rule="evenodd" d="M94.07 45.272c4.053-.158 6.507 1.004 5.455 2.718a2.628 2.628 0 0 1-.414.513c-.868.835-1.801.936-2.743 1.074-.652-1.222-1.72-2.952-2.297-4.305" fill="#C6C7C8"/>
    <path clip-rule="evenodd" d="M94.07 45.272c4.053-.158 6.507 1.004 5.455 2.718a2.628 2.628 0 0 1-.414.513c-.868.835-1.801.936-2.743 1.074-.652-1.222-1.72-2.952-2.297-4.305z" stroke="#333739" stroke-width=".481" stroke-linecap="round" stroke-linejoin="round"/>
    <path fill-rule="evenodd" clip-rule="evenodd" d="M95.293 64.697c.82-.12 3.381-.848 4.006-.305 1.798 1.566.32 4.82-.486 6.45 1.2 2.411 4.819 2.742 4.711 5.982-.104 3.101-3.7 4.021-6.172 2.911-1.583-.71-2.159-2.242-2.66-3.78-.912-.354-1.933-.46-2.894-.58-1.166 8.437-12.597 6.288-10.363.022-.86.03-1.665-.285-3.903-.95a7.2 7.2 0 0 0-2.82-.249c.494 1.188-.108 2.855-1.773 3.078-2.218.296-4.051-2.332-2.485-4.485 1.65-2.269 4.094-2.697 5.347-2.682 2.468.028 5.232.922 7.578-.292 1.047-.541 1.9-1.436 1.974-2.61.231-3.648-7.158-4.178-8.934-12.204-1.757-7.94 3.403-13.33 8.942-14.116 5.79-.821 12.999 1.928 13.395 11.394.309 7.386-3.283 8.536-3.463 12.416" fill="#EF383D"/>
    <mask id="jpyujk94kh" style="mask-type:alpha" maskUnits="userSpaceOnUse" x="69" y="40" width="35" height="41">
        <path fill-rule="evenodd" clip-rule="evenodd" d="M85.36 40.888c-5.539.785-10.698 6.175-8.941 14.115 1.776 8.026 9.165 8.556 8.934 12.204-.075 1.175-.927 2.069-1.974 2.61-2.347 1.214-5.11.32-7.579.291-1.252-.013-3.696.414-5.346 2.683-1.566 2.152.267 4.781 2.485 4.485 1.665-.223 2.267-1.89 1.773-3.078a7.2 7.2 0 0 1 2.82.249c2.239.665 3.042.98 3.903.95-2.235 6.266 9.197 8.416 10.363-.022.96.12 1.982.226 2.893.58.502 1.538 1.078 3.07 2.66 3.78 2.473 1.11 6.069.19 6.173-2.911.108-3.24-3.511-3.57-4.71-5.982.805-1.63 2.283-4.884.485-6.45-.625-.543-3.186.184-4.007.306.181-3.881 3.773-5.031 3.464-12.417-.353-8.427-6.104-11.531-11.448-11.531-.659 0-1.312.047-1.947.138" fill="#fff"/>
    </mask>
    <g mask="url(#jpyujk94kh)">
        <path fill-rule="evenodd" clip-rule="evenodd" d="M80.662 49.164c4.79 2.17 9.51-1.956 12.554-1.88 2.902 2.546 2.864 5.23 2.367 8.492.305.768.712 1.002.848 1.192-.12.325-1.012.463-1.166.796-.911 1.963-1.638 4.524-1.638 6.287 0 1.405-.048 2.596-.383 3.957-.345 1.405-2.489 6.556-1.455 7.93.435.578 3.112 1.147 2.873.01-.505-2.403 1.865-3.93 1.853-2.833-.055 5.312 3.204 8.636 6.475 6 .864-.695 1.377-1.143 1.547-2.265.471-3.112-3.247-3.033-3.506-6.115-.141-1.683.399-3.287.348-4.95-.049-1.556-.782-2.956-.67-4.54.24-3.407 1.432-6.968.47-10.37-.558-1.976-1.88-3.417-2.87-5.148l.012.003c-4.487-4.425-13.405.337-17.66 3.434" fill="#BC2025"/>
    </g>
    <mask id="k7uyw0gvzi" style="mask-type:alpha" maskUnits="userSpaceOnUse" x="69" y="40" width="35" height="41">
        <path fill-rule="evenodd" clip-rule="evenodd" d="M85.36 40.888c-5.539.785-10.698 6.175-8.941 14.115 1.776 8.026 9.165 8.556 8.934 12.204-.075 1.175-.927 2.069-1.974 2.61-2.347 1.214-5.11.32-7.579.291-1.252-.013-3.696.414-5.346 2.683-1.566 2.152.267 4.781 2.485 4.485 1.665-.223 2.267-1.89 1.773-3.078a7.2 7.2 0 0 1 2.82.249c2.239.665 3.042.98 3.903.95-2.235 6.266 9.197 8.416 10.363-.022.96.12 1.982.226 2.893.58.502 1.538 1.078 3.07 2.66 3.78 2.473 1.11 6.069.19 6.173-2.911.108-3.24-3.511-3.57-4.71-5.982.805-1.63 2.283-4.884.485-6.45-.625-.543-3.186.184-4.007.306.181-3.881 3.773-5.031 3.464-12.417-.353-8.427-6.104-11.531-11.448-11.531-.659 0-1.312.047-1.947.138" fill="#fff"/>
    </mask>
    <g mask="url(#k7uyw0gvzi)">
        <path fill-rule="evenodd" clip-rule="evenodd" d="M73.801 73.313c.62 1.096.03 2.675-1.163 2.981-2.052.528-3.033-1.563-3.056-1.324-.117 1.165.644 2.156 1.66 2.643 1.703.817 3.975.163 4.763-1.611.717-1.611-.514-2.774-2.204-2.689" fill="#BC2025"/>
    </g>
    <mask id="u310uzfvoj" style="mask-type:alpha" maskUnits="userSpaceOnUse" x="69" y="40" width="35" height="41">
        <path fill-rule="evenodd" clip-rule="evenodd" d="M85.36 40.888c-5.539.785-10.698 6.175-8.941 14.115 1.776 8.026 9.165 8.556 8.934 12.204-.075 1.175-.927 2.069-1.974 2.61-2.347 1.214-5.11.32-7.579.291-1.252-.013-3.696.414-5.346 2.683-1.566 2.152.267 4.781 2.485 4.485 1.665-.223 2.267-1.89 1.773-3.078a7.2 7.2 0 0 1 2.82.249c2.239.665 3.042.98 3.903.95-2.235 6.266 9.197 8.416 10.363-.022.96.12 1.982.226 2.893.58.502 1.538 1.078 3.07 2.66 3.78 2.473 1.11 6.069.19 6.173-2.911.108-3.24-3.511-3.57-4.71-5.982.805-1.63 2.283-4.884.485-6.45-.625-.543-3.186.184-4.007.306.181-3.881 3.773-5.031 3.464-12.417-.353-8.427-6.104-11.531-11.448-11.531-.659 0-1.312.047-1.947.138" fill="#fff"/>
    </mask>
    <g mask="url(#u310uzfvoj)">
        <path fill-rule="evenodd" clip-rule="evenodd" d="M73.022 73.583c2.323-1.135 4.288-.766 6.739-.487.894.102 1.802.22 2.693.028 1.084-.235 1.842-1.156 2.684-1.808-1.508 1.392-3.155 2.693-3.987 4.627-1.22-.548-4.764-.906-6.212-.856.096-.692-1.028-1.854-1.917-1.504" fill="#BC2025"/>
    </g>
    <mask id="5ubwqizdrk" style="mask-type:alpha" maskUnits="userSpaceOnUse" x="69" y="40" width="35" height="41">
        <path fill-rule="evenodd" clip-rule="evenodd" d="M85.36 40.888c-5.539.785-10.698 6.175-8.941 14.115 1.776 8.026 9.165 8.556 8.934 12.204-.075 1.175-.927 2.069-1.974 2.61-2.347 1.214-5.11.32-7.579.291-1.252-.013-3.696.414-5.346 2.683-1.566 2.152.267 4.781 2.485 4.485 1.665-.223 2.267-1.89 1.773-3.078a7.2 7.2 0 0 1 2.82.249c2.239.665 3.042.98 3.903.95-2.235 6.266 9.197 8.416 10.363-.022.96.12 1.982.226 2.893.58.502 1.538 1.078 3.07 2.66 3.78 2.473 1.11 6.069.19 6.173-2.911.108-3.24-3.511-3.57-4.71-5.982.805-1.63 2.283-4.884.485-6.45-.625-.543-3.186.184-4.007.306.181-3.881 3.773-5.031 3.464-12.417-.353-8.427-6.104-11.531-11.448-11.531-.659 0-1.312.047-1.947.138" fill="#fff"/>
    </mask>
    <g mask="url(#5ubwqizdrk)">
        <path fill-rule="evenodd" clip-rule="evenodd" d="M84.894 66.235c-.352-1.44-2.901-2.333-4.028-4.075 2.091.85 3.19 1.43 4.265 2.696 1.714 2.018.632 4.433-1.547 5.567-1.783.928-3.958.868-5.877.48-1.418-.288-3.021-.27-4.407.225-2.072.74-3.46 2.632-3.145 4.965-.405-.76-.68-1.744-.6-2.605.152-1.656 1.681-3.072 3.233-3.459 1.907-.474 3.854-.09 5.76.141.735.089 1.474.106 2.213.127.455.012 5.075.097 4.133-4.062" fill="#F48EAA"/>
    </g>
    <mask id="5s9sej23il" style="mask-type:alpha" maskUnits="userSpaceOnUse" x="69" y="40" width="35" height="41">
        <path fill-rule="evenodd" clip-rule="evenodd" d="M85.36 40.888c-5.539.785-10.698 6.175-8.941 14.115 1.776 8.026 9.165 8.556 8.934 12.204-.075 1.175-.927 2.069-1.974 2.61-2.347 1.214-5.11.32-7.579.291-1.252-.013-3.696.414-5.346 2.683-1.566 2.152.267 4.781 2.485 4.485 1.665-.223 2.267-1.89 1.773-3.078a7.2 7.2 0 0 1 2.82.249c2.239.665 3.042.98 3.903.95-2.235 6.266 9.197 8.416 10.363-.022.96.12 1.982.226 2.893.58.502 1.538 1.078 3.07 2.66 3.78 2.473 1.11 6.069.19 6.173-2.911.108-3.24-3.511-3.57-4.71-5.982.805-1.63 2.283-4.884.485-6.45-.625-.543-3.186.184-4.007.306.181-3.881 3.773-5.031 3.464-12.417-.353-8.427-6.104-11.531-11.448-11.531-.659 0-1.312.047-1.947.138" fill="#fff"/>
    </mask>
    <g mask="url(#5s9sej23il)">
        <path fill-rule="evenodd" clip-rule="evenodd" d="M87.538 66.894c.266 1.033.047 2.34-.592 3.38-.681 1.109-2.107 2.306-3.057 3.159-1.678 1.506-3.067 4.064-1.607 6.216-4.266-4.537 2.697-7.136 4.608-10.26.368-.601.585-1.805.648-2.495" fill="#F48EAA"/>
    </g>
    <mask id="mayruau21m" style="mask-type:alpha" maskUnits="userSpaceOnUse" x="69" y="40" width="35" height="41">
        <path fill-rule="evenodd" clip-rule="evenodd" d="M85.36 40.888c-5.539.785-10.698 6.175-8.941 14.115 1.776 8.026 9.165 8.556 8.934 12.204-.075 1.175-.927 2.069-1.974 2.61-2.347 1.214-5.11.32-7.579.291-1.252-.013-3.696.414-5.346 2.683-1.566 2.152.267 4.781 2.485 4.485 1.665-.223 2.267-1.89 1.773-3.078a7.2 7.2 0 0 1 2.82.249c2.239.665 3.042.98 3.903.95-2.235 6.266 9.197 8.416 10.363-.022.96.12 1.982.226 2.893.58.502 1.538 1.078 3.07 2.66 3.78 2.473 1.11 6.069.19 6.173-2.911.108-3.24-3.511-3.57-4.71-5.982.805-1.63 2.283-4.884.485-6.45-.625-.543-3.186.184-4.007.306.181-3.881 3.773-5.031 3.464-12.417-.353-8.427-6.104-11.531-11.448-11.531-.659 0-1.312.047-1.947.138" fill="#fff"/>
    </mask>
    <g mask="url(#mayruau21m)">
        <path fill-rule="evenodd" clip-rule="evenodd" d="M85.451 76.059c2.149.707 3.108-.717 3.692-2.601.364-1.174.433-2.401.763-3.581.463-1.66 1.78-4.118 3.72-4.389-1.233-.28-2.426.647-3.085 1.602-.702 1.016-1.17 2.142-1.466 3.337-.31 1.248-.46 2.535-.965 3.73-.542 1.29-1.292 1.86-2.659 1.902" fill="#F48EAA"/>
    </g>
    <mask id="hik52cs78n" style="mask-type:alpha" maskUnits="userSpaceOnUse" x="69" y="40" width="35" height="41">
        <path fill-rule="evenodd" clip-rule="evenodd" d="M85.36 40.888c-5.539.785-10.698 6.175-8.941 14.115 1.776 8.026 9.165 8.556 8.934 12.204-.075 1.175-.927 2.069-1.974 2.61-2.347 1.214-5.11.32-7.579.291-1.252-.013-3.696.414-5.346 2.683-1.566 2.152.267 4.781 2.485 4.485 1.665-.223 2.267-1.89 1.773-3.078a7.2 7.2 0 0 1 2.82.249c2.239.665 3.042.98 3.903.95-2.235 6.266 9.197 8.416 10.363-.022.96.12 1.982.226 2.893.58.502 1.538 1.078 3.07 2.66 3.78 2.473 1.11 6.069.19 6.173-2.911.108-3.24-3.511-3.57-4.71-5.982.805-1.63 2.283-4.884.485-6.45-.625-.543-3.186.184-4.007.306.181-3.881 3.773-5.031 3.464-12.417-.353-8.427-6.104-11.531-11.448-11.531-.659 0-1.312.047-1.947.138" fill="#fff"/>
    </mask>
    <g mask="url(#hik52cs78n)">
        <path fill-rule="evenodd" clip-rule="evenodd" d="M94.644 74.672c.23 2.636.786 6.258 5.859 5.663-1.002.07-2.74-.73-3.472-1.27-1.673-1.23-2.066-2.88-2.387-4.393" fill="#F48EAA"/>
    </g>
    <mask id="sakcp6o9uo" style="mask-type:alpha" maskUnits="userSpaceOnUse" x="69" y="40" width="35" height="41">
        <path fill-rule="evenodd" clip-rule="evenodd" d="M85.36 40.888c-5.539.785-10.698 6.175-8.941 14.115 1.776 8.026 9.165 8.556 8.934 12.204-.075 1.175-.927 2.069-1.974 2.61-2.347 1.214-5.11.32-7.579.291-1.252-.013-3.696.414-5.346 2.683-1.566 2.152.267 4.781 2.485 4.485 1.665-.223 2.267-1.89 1.773-3.078a7.2 7.2 0 0 1 2.82.249c2.239.665 3.042.98 3.903.95-2.235 6.266 9.197 8.416 10.363-.022.96.12 1.982.226 2.893.58.502 1.538 1.078 3.07 2.66 3.78 2.473 1.11 6.069.19 6.173-2.911.108-3.24-3.511-3.57-4.71-5.982.805-1.63 2.283-4.884.485-6.45-.625-.543-3.186.184-4.007.306.181-3.881 3.773-5.031 3.464-12.417-.353-8.427-6.104-11.531-11.448-11.531-.659 0-1.312.047-1.947.138" fill="#fff"/>
    </mask>
    <g mask="url(#sakcp6o9uo)">
        <path fill-rule="evenodd" clip-rule="evenodd" d="M81.737 79.075c.764.562 1.598.801 2.537.847 2.932.14 5.158-2.131 5.876-4.835.535-2.017.043-4.56.843-6.533.36-.89 1.872-2.642 3.077-2.695-.788 1.475-1.877 2.316-2.14 4.005-.201 1.294-.118 3.02 0 4.296.198 2.127-.85 4.023-2.164 5.652-.69.857-1.598 1.561-2.678 1.836-1.977.504-4.572-.547-5.35-2.573" fill="#BC2025"/>
    </g>
    <mask id="awvio5ty1p" style="mask-type:alpha" maskUnits="userSpaceOnUse" x="69" y="40" width="35" height="41">
        <path fill-rule="evenodd" clip-rule="evenodd" d="M85.36 40.888c-5.539.785-10.698 6.175-8.941 14.115 1.776 8.026 9.165 8.556 8.934 12.204-.075 1.175-.927 2.069-1.974 2.61-2.347 1.214-5.11.32-7.579.291-1.252-.013-3.696.414-5.346 2.683-1.566 2.152.267 4.781 2.485 4.485 1.665-.223 2.267-1.89 1.773-3.078a7.2 7.2 0 0 1 2.82.249c2.239.665 3.042.98 3.903.95-2.235 6.266 9.197 8.416 10.363-.022.96.12 1.982.226 2.893.58.502 1.538 1.078 3.07 2.66 3.78 2.473 1.11 6.069.19 6.173-2.911.108-3.24-3.511-3.57-4.71-5.982.805-1.63 2.283-4.884.485-6.45-.625-.543-3.186.184-4.007.306.181-3.881 3.773-5.031 3.464-12.417-.353-8.427-6.104-11.531-11.448-11.531-.659 0-1.312.047-1.947.138" fill="#fff"/>
    </mask>
    <g mask="url(#awvio5ty1p)">
        <path fill-rule="evenodd" clip-rule="evenodd" d="M85.391 76.144c-.955.133-1.386-.517-.446-1.454.42-.417 1.016-.706 1.52-1.007.982-.585 2.07-1.424 2.522-2.515-.368 1.844-.862 4.987-3.596 4.976" fill="#BC2025"/>
    </g>
    <path clip-rule="evenodd" d="M95.293 64.697c.82-.12 3.381-.848 4.006-.305 1.798 1.566.32 4.82-.486 6.45 1.2 2.411 4.819 2.742 4.711 5.982-.104 3.101-3.7 4.021-6.172 2.911-1.583-.71-2.159-2.242-2.66-3.78-.912-.354-1.933-.46-2.894-.58-1.166 8.437-12.597 6.288-10.363.022-.86.03-1.665-.285-3.903-.95a7.2 7.2 0 0 0-2.82-.249c.494 1.188-.108 2.855-1.773 3.078-2.218.296-4.051-2.332-2.485-4.485 1.65-2.269 4.094-2.697 5.347-2.682 2.468.028 5.232.922 7.578-.292 1.047-.541 1.9-1.436 1.974-2.61.231-3.648-7.158-4.178-8.934-12.204-1.757-7.94 3.403-13.33 8.942-14.116 5.79-.821 12.999 1.928 13.395 11.394.309 7.386-3.283 8.536-3.463 12.416z" stroke="#333739" stroke-width=".481" stroke-linecap="round" stroke-linejoin="round"/>
    <path fill-rule="evenodd" clip-rule="evenodd" d="M98.702 70.796c-.427 1.023-.705 2.188-.393 3.14a2.218 2.218 0 0 0 1.149 1.331c.114.052.235.092.366.13a.056.056 0 1 0 .044-.103c-.113-.064-.213-.134-.311-.201-.07-.047-.136-.092-.2-.139-.42-.307-.686-.673-.82-1.091-.292-.904-.018-2.005.387-2.974a.12.12 0 0 0-.065-.157.12.12 0 0 0-.157.064M103.24 67.269c.106-.453.386-.997.788-1.295.255-.19.563-.277.912-.153a.848.848 0 0 1 .54.552.624.624 0 0 1-.252.721.04.04 0 0 0-.012.057c.011.019.037.024.056.012.343-.191.442-.522.378-.833a1.046 1.046 0 0 0-.627-.734c-.436-.163-.827-.065-1.148.171-.45.33-.759.942-.873 1.448a.122.122 0 0 0 .238.054M74.866 74.27a2.15 2.15 0 0 0-1.249-.92 1.64 1.64 0 0 0-1.511.342c-.28.255-.472.623-.453.974.018.318.2.625.644.807.02.01.045 0 .054-.02a.04.04 0 0 0-.02-.053c-.366-.193-.508-.462-.5-.737a.895.895 0 0 1 .088-.353c.076-.165.198-.317.344-.434.188-.157.395-.253.61-.297.225-.047.457-.038.68.02.44.112.847.404 1.109.803a.122.122 0 0 0 .204-.132M81.545 75.45c.257-.537.637-1.09 1.077-1.61.425-.501.907-.97 1.395-1.36.822-.66 2.172-1.596 2.956-3.005a4.69 4.69 0 0 0 .564-1.616c.026-.184.039-.375.04-.57a4.723 4.723 0 0 0-.034-.569.07.07 0 0 0-.073-.064.07.07 0 0 0-.065.074 5.122 5.122 0 0 1-.091 1.093 4.874 4.874 0 0 1-.55 1.535c-.774 1.374-2.096 2.286-2.901 2.93-.5.4-.994.88-1.429 1.393-.454.537-.845 1.11-1.11 1.664a.122.122 0 0 0 .058.163c.06.03.134.003.163-.058M86.103 49.382c.306.106.586.253.843.422a4.937 4.937 0 0 1 .687.548 5.222 5.222 0 0 1 .854 1.009.025.025 0 0 0 .036.008c.012-.007.016-.023.008-.035a5.019 5.019 0 0 0-.814-1.07 3.98 3.98 0 0 0-.714-.55 3.727 3.727 0 0 0-.883-.385.029.029 0 0 0-.035.018.028.028 0 0 0 .018.035M84.49 49.651a2.741 2.741 0 0 0-.53.278 2.377 2.377 0 0 0-.424.367 2.29 2.29 0 0 0-.427.72.025.025 0 0 0 .014.033c.013.006.028 0 .033-.013.084-.175.192-.336.315-.486a2.953 2.953 0 0 1 .263-.282 3.256 3.256 0 0 1 .78-.566c.013-.007.02-.023.013-.037-.006-.014-.023-.02-.036-.014" fill="#333739"/>
    <path fill-rule="evenodd" clip-rule="evenodd" d="M85.074 49.886c-1.072.2-2.165 1.14-2.775 1.46-.46.243.386.92.423 1.834.045 1.116 3.79-3.56 2.352-3.294M81.933 50.56c.097-.441.288-.896.556-1.32.238-.376.547-.714.943-.966a2.86 2.86 0 0 1 .852-.39c.312-.093.632-.154.956-.166.713-.028 1.42.116 1.96.434a.18.18 0 0 0 .21-.294c-.55-.47-1.325-.8-2.146-.885a3.517 3.517 0 0 0-1.209.08c-.4.1-.775.29-1.115.54-.455.372-.805.83-1.03 1.338a4.394 4.394 0 0 0-.367 1.579.197.197 0 0 0 .39.051" fill="#333739"/>
    <path fill-rule="evenodd" clip-rule="evenodd" d="M84.82 49.898c-1.694.527-2.591 2.484-2.003 4.367.588 1.882 2.44 2.982 4.134 2.455 1.694-.528 2.592-2.485 2.003-4.368-.587-1.882-2.44-2.982-4.134-2.454" fill="#fff"/>
    <mask id="zfuw1vpcgq" style="mask-type:alpha" maskUnits="userSpaceOnUse" x="82" y="49" width="8" height="8">
        <path fill-rule="evenodd" clip-rule="evenodd" d="M84.82 49.898c-1.694.527-2.591 2.484-2.003 4.366.588 1.883 2.44 2.983 4.134 2.456 1.694-.528 2.592-2.485 2.003-4.368-.488-1.563-1.849-2.586-3.265-2.586-.29 0-.581.042-.87.132" fill="#fff"/>
    </mask>
    <g mask="url(#zfuw1vpcgq)">
        <path fill-rule="evenodd" clip-rule="evenodd" d="M85.096 51.025c-1.271.383-1.95 1.865-1.514 3.306.436 1.442 1.822 2.302 3.093 1.918 1.271-.383 1.95-1.864 1.515-3.306-.436-1.442-1.822-2.302-3.094-1.918" fill="#333739"/>
    </g>
    <mask id="zrzeqt36wr" style="mask-type:alpha" maskUnits="userSpaceOnUse" x="82" y="49" width="8" height="8">
        <path fill-rule="evenodd" clip-rule="evenodd" d="M84.82 49.898c-1.694.527-2.591 2.484-2.003 4.366.588 1.883 2.44 2.983 4.134 2.456 1.694-.528 2.592-2.485 2.003-4.368-.488-1.563-1.849-2.586-3.265-2.586-.29 0-.581.042-.87.132" fill="#fff"/>
    </mask>
    <g mask="url(#zrzeqt36wr)">
        <path fill-rule="evenodd" clip-rule="evenodd" d="M87.33 53.26c.075.376.058.693-.01.96a1.073 1.073 0 0 1-.834.8c-.327.076-.691.03-1.002-.173a1.647 1.647 0 0 1-.673-.907.32.32 0 0 0-.618.158c.188.94.787 1.504 1.44 1.723a1.93 1.93 0 0 0 1.052.048c.237-.056.462-.157.655-.304.584-.445.957-1.281.57-2.46a.301.301 0 0 0-.58.156" fill="#780000"/>
    </g>
    <mask id="c6yrkhmqws" style="mask-type:alpha" maskUnits="userSpaceOnUse" x="82" y="49" width="8" height="8">
        <path fill-rule="evenodd" clip-rule="evenodd" d="M84.82 49.898c-1.694.527-2.591 2.484-2.003 4.366.588 1.883 2.44 2.983 4.134 2.456 1.694-.528 2.592-2.485 2.003-4.368-.488-1.563-1.849-2.586-3.265-2.586-.29 0-.581.042-.87.132" fill="#fff"/>
    </mask>
    <g mask="url(#c6yrkhmqws)">
        <path fill-rule="evenodd" clip-rule="evenodd" d="M85.438 51.98c-.244-.19-.605-.135-.806.122-.2.256-.166.617.078.806.244.188.605.134.805-.123.201-.256.167-.617-.077-.805" fill="#fff"/>
    </g>
    <mask id="svwpz87tit" style="mask-type:alpha" maskUnits="userSpaceOnUse" x="82" y="49" width="8" height="8">
        <path fill-rule="evenodd" clip-rule="evenodd" d="M84.82 49.898c-1.694.527-2.591 2.484-2.003 4.366.588 1.883 2.44 2.983 4.134 2.456 1.694-.528 2.592-2.485 2.003-4.368-.488-1.563-1.849-2.586-3.265-2.586-.29 0-.581.042-.87.132" fill="#fff"/>
    </mask>
    <g mask="url(#svwpz87tit)">
        <path fill-rule="evenodd" clip-rule="evenodd" d="M87.412 54.777a.312.312 0 0 0-.304.317.31.31 0 0 0 .303.316.312.312 0 0 0 .304-.317.31.31 0 0 0-.303-.316" fill="#fff"/>
    </g>
    <path fill-rule="evenodd" clip-rule="evenodd" d="M84.796 49.821a3.002 3.002 0 0 0-1.391.858 3.28 3.28 0 0 0-.592.928c-.342.798-.403 1.755-.109 2.692a3.897 3.897 0 0 0 1.629 2.143c.792.496 1.743.661 2.65.376.904-.284 1.588-.962 1.952-1.82a3.872 3.872 0 0 0 .105-2.673 3.872 3.872 0 0 0-1.617-2.127c-.785-.491-1.728-.655-2.626-.372v-.005zm.046.147c.855-.263 1.75-.102 2.493.37a3.697 3.697 0 0 1 1.533 2.04c.275.888.212 1.79-.112 2.544-.346.802-.988 1.435-1.836 1.697-.846.26-1.732.1-2.469-.366a3.669 3.669 0 0 1-1.522-2.025 3.67 3.67 0 0 1 .11-2.525c.135-.32.319-.612.54-.869a2.896 2.896 0 0 1 1.264-.862v-.004zM97.53 49.09a3.33 3.33 0 0 0-.394-.512 2.604 2.604 0 0 0-.325-.29 2.236 2.236 0 0 0-.376-.222 2.035 2.035 0 0 0-.626-.171.025.025 0 0 0-.03.021.025.025 0 0 0 .022.03c.209.04.403.116.587.216.073.04.144.084.214.13a3.282 3.282 0 0 1 .459.362c.155.145.299.302.424.468a.028.028 0 1 0 .046-.032M94.275 48.53c-.123.145-.229.306-.317.48a2.873 2.873 0 0 0-.252.722c-.04.19-.067.38-.087.564a.025.025 0 0 0 .021.03.026.026 0 0 0 .03-.022 7.323 7.323 0 0 1 .171-.653c.022-.071.046-.142.07-.213.024-.07.048-.14.075-.21a3.67 3.67 0 0 1 .114-.275c.063-.137.135-.268.22-.39a.028.028 0 0 0-.005-.038.028.028 0 0 0-.04.005" fill="#333739"/>
    <path fill-rule="evenodd" clip-rule="evenodd" d="M95.24 48.287a8.858 8.858 0 0 1 2.115.099c.617.1.234.708.626 1.892.35 1.061-4.199-1.875-2.74-1.991M93.264 46.467c.231-.152.51-.26.814-.331.256-.062.527-.074.806-.023.188.02.363.084.534.154.183.076.36.157.523.267.372.252.684.562.838.912a.18.18 0 0 0 .347-.099 2.415 2.415 0 0 0-.314-.878 2.6 2.6 0 0 0-.385-.503 2.322 2.322 0 0 0-.655-.486 2.2 2.2 0 0 0-.815-.203 2.49 2.49 0 0 0-1.103.244 2.8 2.8 0 0 0-.849.65.196.196 0 1 0 .259.296" fill="#333739"/>
    <path fill-rule="evenodd" clip-rule="evenodd" d="M95.334 48.325c-1.256.237-2.001 1.879-1.663 3.663.337 1.785 1.631 3.041 2.886 2.805 1.256-.237 2.001-1.878 1.663-3.663-.337-1.785-1.631-3.041-2.886-2.805" fill="#fff"/>
    <mask id="noun2rwm1u" style="mask-type:alpha" maskUnits="userSpaceOnUse" x="93" y="48" width="6" height="7">
        <path fill-rule="evenodd" clip-rule="evenodd" d="M95.334 48.326c-1.255.237-2 1.878-1.663 3.663.338 1.784 1.631 3.04 2.887 2.805 1.255-.238 2-1.879 1.663-3.664-.31-1.638-1.427-2.833-2.58-2.833-.102 0-.205.01-.307.029" fill="#fff"/>
    </mask>
    <g mask="url(#noun2rwm1u)">
        <path fill-rule="evenodd" clip-rule="evenodd" d="M95.09 49.404c-1.125.117-1.797 1.357-1.5 2.767.296 1.41 1.45 2.46 2.574 2.342 1.125-.118 1.796-1.358 1.5-2.768-.297-1.41-1.45-2.46-2.575-2.341" fill="#333739"/>
    </g>
    <mask id="pn4sj9b16v" style="mask-type:alpha" maskUnits="userSpaceOnUse" x="93" y="48" width="6" height="7">
        <path fill-rule="evenodd" clip-rule="evenodd" d="M95.334 48.326c-1.255.237-2 1.878-1.663 3.663.338 1.784 1.631 3.04 2.887 2.805 1.255-.238 2-1.879 1.663-3.664-.31-1.638-1.427-2.833-2.58-2.833-.102 0-.205.01-.307.029" fill="#fff"/>
    </mask>
    <g mask="url(#pn4sj9b16v)">
        <path fill-rule="evenodd" clip-rule="evenodd" d="M96.863 52.011c.054.393-.017.706-.149.94a.691.691 0 0 1-.608.364c-.24.003-.49-.105-.701-.348a2.202 2.202 0 0 1-.46-.907.319.319 0 0 0-.627.117c.107.854.47 1.408.883 1.713.288.211.614.302.922.295.228-.005.452-.063.648-.177.56-.324.977-1.068.68-2.121a.302.302 0 0 0-.588.124" fill="#780000"/>
    </g>
    <mask id="isv544bqcw" style="mask-type:alpha" maskUnits="userSpaceOnUse" x="93" y="48" width="6" height="7">
        <path fill-rule="evenodd" clip-rule="evenodd" d="M95.334 48.326c-1.255.237-2 1.878-1.663 3.663.338 1.784 1.631 3.04 2.887 2.805 1.255-.238 2-1.879 1.663-3.664-.31-1.638-1.427-2.833-2.58-2.833-.102 0-.205.01-.307.029" fill="#fff"/>
    </mask>
    <g mask="url(#isv544bqcw)">
        <path fill-rule="evenodd" clip-rule="evenodd" d="M94.379 50.502c-.221.204-.244.525-.05.718.193.192.53.183.752-.02.222-.204.243-.525.05-.718-.194-.192-.53-.183-.752.02" fill="#fff"/>
    </g>
    <mask id="nzp4m0upox" style="mask-type:alpha" maskUnits="userSpaceOnUse" x="93" y="48" width="6" height="7">
        <path fill-rule="evenodd" clip-rule="evenodd" d="M95.334 48.326c-1.255.237-2 1.878-1.663 3.663.338 1.784 1.631 3.04 2.887 2.805 1.255-.238 2-1.879 1.663-3.664-.31-1.638-1.427-2.833-2.58-2.833-.102 0-.205.01-.307.029" fill="#fff"/>
    </mask>
    <g mask="url(#nzp4m0upox)">
        <path fill-rule="evenodd" clip-rule="evenodd" d="M96.73 53.314a.33.33 0 0 0 .042.464c.139.11.346.078.462-.068.116-.147.097-.356-.042-.465a.33.33 0 0 0-.462.069" fill="#fff"/>
    </g>
    <path fill-rule="evenodd" clip-rule="evenodd" d="M95.323 48.27c-.588.108-1.07.513-1.39 1.097-.379.696-.526 1.644-.343 2.64.184.998.662 1.835 1.266 2.352.515.44 1.122.648 1.72.539.602-.111 1.095-.525 1.42-1.121.382-.703.529-1.662.341-2.666a4.541 4.541 0 0 0-.445-1.285 3.5 3.5 0 0 0-.854-1.065c-.52-.425-1.126-.618-1.715-.493v.002zm.022.118c.55-.09 1.097.117 1.563.526.3.264.567.611.778 1.02.188.363.335.775.418 1.22.182.947.051 1.852-.305 2.517-.287.538-.722.918-1.26 1.022-.665.128-1.339-.188-1.866-.78-.435-.487-.77-1.16-.92-1.937-.187-.956-.057-1.871.301-2.544.293-.551.74-.939 1.291-1.046v.002zM93.614 64.624c-2.806.825-5.14-1.676-5.57-6.526.197-.05.254-.056.452-.1 2.018 1.014 4.787.886 7.083-.408-.757 1.13-2.029 3.031-1.965 7.034" fill="#333739"/>
    <mask id="4bj7l4au9y" style="mask-type:alpha" maskUnits="userSpaceOnUse" x="88" y="57" width="8" height="8">
        <path fill-rule="evenodd" clip-rule="evenodd" d="M88.496 57.994c-.198.044-.255.05-.452.1.43 4.85 2.764 7.351 5.57 6.526-.064-4.003 1.207-5.904 1.964-7.034-2.295 1.294-5.064 1.422-7.082.408" fill="#fff"/>
    </mask>
    <g mask="url(#4bj7l4au9y)">
        <path fill-rule="evenodd" clip-rule="evenodd" d="M91.475 61.611c-1.63-1.402-3.508-1.897-4.194-1.104-.685.794.081 2.577 1.71 3.98 1.63 1.402 3.508 1.896 4.194 1.103.685-.793-.082-2.576-1.71-3.979" fill="#F48EAA"/>
    </g>
    <mask id="152ks67z3z" style="mask-type:alpha" maskUnits="userSpaceOnUse" x="88" y="57" width="8" height="8">
        <path fill-rule="evenodd" clip-rule="evenodd" d="M88.496 57.994c-.198.044-.255.05-.452.1.43 4.85 2.764 7.351 5.57 6.526-.064-4.003 1.207-5.904 1.964-7.034-2.295 1.294-5.064 1.422-7.082.408" fill="#fff"/>
    </mask>
    <g mask="url(#152ks67z3z)">
        <path fill-rule="evenodd" clip-rule="evenodd" d="M94.327 56.752c-.153.77-.441 1.181-.809 1.414-.164.104-.352.137-.545.173-.343.065-.714.058-1.09.054-.34.02-.705 0-1.078-.017-.553-.025-1.116-.057-1.642-.157-.67-.128-1.27-.288-1.656-.604a.308.308 0 1 0-.45.423c.438.6 1.282 1.106 2.27 1.453a7.22 7.22 0 0 0 1.552.357c.369.042.734.034 1.075.019.865-.107 1.72-.232 2.294-.788.46-.445.8-1.121.75-2.276a.337.337 0 0 0-.671-.051" fill="#fff"/>
    </g>
    <path fill-rule="evenodd" clip-rule="evenodd" d="M96.367 56.96a2.198 2.198 0 0 1-.864-1.197.07.07 0 0 1 .047-.088.071.071 0 0 1 .089.047c.082.253.2.474.354.666.155.192.345.356.57.496a.087.087 0 0 1 .007.142 8.205 8.205 0 0 1-3.928 1.696c-1.527.219-3.018-.016-4.186-.605a2.844 2.844 0 0 1-.261.086c.161 1.195.297 2.117.587 2.975a7.2 7.2 0 0 0 .945 1.85c.53.764 1.216 1.26 1.935 1.503.322.11.65.17.975.18a3.026 3.026 0 0 0 1.456-.31.056.056 0 0 1 .053.1 3.123 3.123 0 0 1-1.776.4 3.298 3.298 0 0 1-.78-.154c-.766-.246-1.496-.774-2.061-1.58a7.426 7.426 0 0 1-.982-1.91c-.305-.898-.445-1.866-.617-3.137a.126.126 0 0 1 .108-.142c.047-.006.097-.017.148-.032.075-.023.153-.051.231-.082a.129.129 0 0 1 .104.006c1.132.59 2.591.82 4.088.619a8.078 8.078 0 0 0 3.758-1.528" fill="#333739"/>
    <path d="M95.579 57.586c-.844 1.125-1.977 3.421-1.966 6.997" stroke="#333739" stroke-width=".481" stroke-linecap="round" stroke-linejoin="round"/>
    <path fill-rule="evenodd" clip-rule="evenodd" d="M89.176 57.297a1.844 1.844 0 0 1-.46.404c-.114.073-.234.13-.358.179a2.193 2.193 0 0 1-1.002.15.066.066 0 0 0-.075.056.065.065 0 0 0 .055.075c.226.05.45.068.667.048.154-.014.303-.047.444-.101.142-.056.275-.133.396-.228.172-.136.317-.308.437-.511a.063.063 0 1 0-.104-.072" fill="#333739"/>
    <path fill-rule="evenodd" clip-rule="evenodd" d="M80.575 49.359c3.009.418 6.782-2.014 9.5-3.067 2.527-.979 5.031-1.252 6.583-.915-2.97-2.864-14.713.668-16.083 3.982" fill="#fff"/>
    <mask id="rdgrnd2loA" style="mask-type:alpha" maskUnits="userSpaceOnUse" x="80" y="44" width="17" height="6">
        <path fill-rule="evenodd" clip-rule="evenodd" d="M80.574 49.36c3.01.417 6.783-2.015 9.5-3.068 2.528-.979 5.032-1.252 6.583-.915-.767-.74-2.12-1.053-3.728-1.053-4.617 0-11.338 2.577-12.355 5.035" fill="#fff"/>
    </mask>
    <g mask="url(#rdgrnd2loA)">
        <path fill-rule="evenodd" clip-rule="evenodd" d="M92.198 44.666c1.052.074 2.099.432 3.028.926.87.462 2.167-.226 3.133.009-1.25-.671-4.61-1.196-6.161-.935" fill="#C6C7C8"/>
    </g>
    <path clip-rule="evenodd" d="M80.574 49.359c3.01.418 6.782-2.014 9.5-3.067 2.528-.979 5.032-1.252 6.583-.915-2.97-2.864-14.712.668-16.083 3.982z" stroke="#333739" stroke-width=".481" stroke-linecap="round" stroke-linejoin="round"/>
    <path fill-rule="evenodd" clip-rule="evenodd" d="M76.782 56.644c-1.081-7.39 14.19-14.437 19.876-11.268-2.573-4.617-11.188-7.32-17.517-1.578-5.063 4.595-3.534 10.665-2.359 12.846" fill="#fff"/>
    <mask id="d09fe0rw2B" style="mask-type:alpha" maskUnits="userSpaceOnUse" x="75" y="40" width="22" height="17">
        <path fill-rule="evenodd" clip-rule="evenodd" d="M79.141 43.799c-5.063 4.594-3.533 10.664-2.358 12.845-1.082-7.39 14.19-14.436 19.875-11.268-1.537-2.758-5.23-4.832-9.303-4.833-2.746 0-5.665.943-8.214 3.256" fill="#fff"/>
    </mask>
    <g mask="url(#d09fe0rw2B)">
        <path fill-rule="evenodd" clip-rule="evenodd" d="M85.374 45.517c-1.023.437-2.098 1.04-3.145 1.747-.316-1.16-.61-2.25-.884-3.273a15.27 15.27 0 0 1 2.903-1.46c.368.956.706 1.909 1.126 2.986" fill="#780000"/>
    </g>
    <mask id="mx637xcneC" style="mask-type:alpha" maskUnits="userSpaceOnUse" x="75" y="40" width="22" height="17">
        <path fill-rule="evenodd" clip-rule="evenodd" d="M79.141 43.799c-5.063 4.594-3.533 10.664-2.358 12.845-1.082-7.39 14.19-14.436 19.875-11.268-1.537-2.758-5.23-4.832-9.303-4.833-2.746 0-5.665.943-8.214 3.256" fill="#fff"/>
    </mask>
    <g mask="url(#mx637xcneC)">
        <path fill-rule="evenodd" clip-rule="evenodd" d="M87.346 43.81a.552.552 0 0 1-.365.255c-.382.083-.807-.172-.974-.585-.162-.402 0-.789.374-.875a.753.753 0 0 1 .486.062l.009.003.162-.352a1.224 1.224 0 0 0-.832-.124c-.603.142-.882.78-.633 1.406.26.654.971 1.066 1.595.931a.892.892 0 0 0 .61-.449l.004-.007a43.147 43.147 0 0 0-.432-.272l-.004.007m.943.44c.144-.022.29-.041.434-.06-.327-.769-.65-1.506-.967-2.212-.14.018-.28.039-.418.06.312.704.63 1.443.951 2.212m1.79-1.011c-.021-.033-1.39-1.36-1.398-1.357-.138.01-.276.02-.413.034.324.707.654 1.445.988 2.213.145-.013.292-.024.439-.033a133.7 133.7 0 0 0-.61-1.358c.067.053 1.39 1.345 1.382 1.346-.002-.003.111-1.313.119-1.366.212.443.426.893.642 1.354.15.004.301.011.453.02-.363-.761-.722-1.499-1.076-2.21-.143-.01-.285-.017-.427-.023-.002-.003-.1 1.346-.1 1.38m2.844.592a16.323 16.323 0 0 0-.452-.062l-.264-.53c.148.018.298.04.448.063a.583.583 0 0 1 .42.308c.065.13.06.254-.152.221m-1.159-1.469c.138.018.276.038.415.06a.55.55 0 0 1 .401.282c.078.149.018.22-.158.192-.14-.022-.279-.042-.417-.06l-.24-.474m1.23.804c.073-.035.164-.15.037-.392a1.441 1.441 0 0 0-1.017-.729c-.3-.048-.596-.087-.89-.116.36.712.724 1.449 1.093 2.209.317.03.637.068.959.117.438.066.585-.13.376-.536a1.351 1.351 0 0 0-.559-.553" fill="#780000"/>
    </g>
    <mask id="w7nlq16ccD" style="mask-type:alpha" maskUnits="userSpaceOnUse" x="75" y="40" width="22" height="17">
        <path fill-rule="evenodd" clip-rule="evenodd" d="M79.141 43.799c-5.063 4.594-3.533 10.664-2.358 12.845-1.082-7.39 14.19-14.436 19.875-11.268-1.537-2.758-5.23-4.832-9.303-4.833-2.746 0-5.665.943-8.214 3.256" fill="#fff"/>
    </mask>
    <g mask="url(#w7nlq16ccD)">
        <path fill-rule="evenodd" clip-rule="evenodd" d="M81.839 44.277a15.692 15.692 0 0 1 1.561-.836c.373.193.757.397 1.15.613-.14.472-.28.965-.423 1.479-.562.266-1.12.573-1.67.92.13-.553.259-1.084.385-1.592a56.173 56.173 0 0 0-1.003-.584" fill="#EF3737"/>
    </g>
    <mask id="r9ughw6i6E" style="mask-type:alpha" maskUnits="userSpaceOnUse" x="75" y="40" width="22" height="17">
        <path fill-rule="evenodd" clip-rule="evenodd" d="M79.141 43.799c-5.063 4.594-3.533 10.664-2.358 12.845-1.082-7.39 14.19-14.436 19.875-11.268-1.537-2.758-5.23-4.832-9.303-4.833-2.746 0-5.665.943-8.214 3.256" fill="#fff"/>
    </mask>
    <g mask="url(#r9ughw6i6E)">
        <path fill-rule="evenodd" clip-rule="evenodd" d="M84.55 44.054c-.393-.216-.776-.42-1.15-.613-.525.243-1.046.522-1.56.836.325.185.66.38 1.002.583" fill="#fff"/>
    </g>
    <mask id="xbbf15qqgF" style="mask-type:alpha" maskUnits="userSpaceOnUse" x="87" y="40" width="10" height="6">
        <path fill-rule="evenodd" clip-rule="evenodd" d="m87.427 40.543.142.001c3.988.072 7.579 2.122 9.089 4.832l-.02-.033h-.043l-.11-.06c-1.971-.994-4.99-.85-8.08.059h-.978" fill="#fff"/>
    </mask>
    <g mask="url(#xbbf15qqgF)">
        <path fill-rule="evenodd" clip-rule="evenodd" d="M92.822 41.409c.97.224 2.094 1.558 2.434 3.322.617.016 1.152.119 1.71.582-.122-1.242-.387-2.098-.951-2.894-.702-.99-1.296-1.216-2.172-1.24-.316-.01-.726-.046-1.021.23" fill="#C6C7C8"/>
    </g>
    <mask id="mibxsm8irG" style="mask-type:alpha" maskUnits="userSpaceOnUse" x="75" y="40" width="22" height="17">
        <path fill-rule="evenodd" clip-rule="evenodd" d="M79.141 43.799c-5.063 4.594-3.533 10.664-2.358 12.845-1.082-7.39 14.19-14.436 19.875-11.268-1.537-2.758-5.23-4.832-9.303-4.833-2.746 0-5.665.943-8.214 3.256z" fill="#fff"/>
    </mask>
    <g mask="url(#mibxsm8irG)">
        <path fill-rule="evenodd" clip-rule="evenodd" d="M77.923 55.667c-.914-4.448.326-11.15 4.018-13.803.777-.56 1.688-.85 2.593-1.104-1.36-.042-2.639.562-3.791 1.247-1.006.596-2.041 1.274-2.82 2.17-2.723 3.134-4.27 8.264-2.714 12.318.656-.236 1.823.012 2.488-.207" fill="#C6C7C8"/>
    </g>
    <path clip-rule="evenodd" d="M76.782 56.644c-1.081-7.39 14.19-14.437 19.876-11.268-2.573-4.617-11.188-7.32-17.517-1.578-5.063 4.595-3.534 10.665-2.359 12.846z" stroke="#333739" stroke-width=".481" stroke-linecap="round" stroke-linejoin="round"/>
    <path fill-rule="evenodd" clip-rule="evenodd" d="M81.853 48.428c-.555-1.508-.79-3.124-.568-4.451.087-.52.247-.993.482-1.402.15-.261.329-.496.544-.698.144-.134.3-.255.476-.359a.064.064 0 0 0 .026-.086.064.064 0 0 0-.087-.026 2.766 2.766 0 0 0-1.153 1.054c-.26.424-.431.927-.526 1.476-.236 1.363.007 3.026.575 4.577a.123.123 0 0 0 .157.073.123.123 0 0 0 .074-.158M94.853 76.067a4.639 4.639 0 0 1-.016-1.814c.128-.722.412-1.42.742-2.073.033-.067.066-.133.097-.2.048-.103.088-.206.135-.309a.056.056 0 0 0-.095-.06c-.041.05-.082.096-.122.148a2.815 2.815 0 0 0-.166.232c-.1.16-.183.332-.265.504a7 7 0 0 0-.46 1.25c-.205.782-.257 1.593-.084 2.374a.12.12 0 0 0 .235-.052" fill="#333739"/>
    <mask id="quddyn7hgH" style="mask-type:alpha" maskUnits="userSpaceOnUse" x="88" y="61" width="14" height="16">
        <path fill-rule="evenodd" clip-rule="evenodd" d="M88.33 76.725h12.789V61.61H88.33m1.556 12.393c-.308-.58-.337-1.39-.213-2.019.225-1.145 1.66-3.821 2.827-4.406l.126.12c-.493 1.071-.907 2.12-.92 3.318-.015 1.436.376 2.863.136 4.297-.745-.292-1.558-.56-1.956-1.31" fill="#fff"/>
    </mask>
    <g mask="url(#quddyn7hgH)">
        <path fill-rule="evenodd" clip-rule="evenodd" d="M99.776 64.198a.421.421 0 0 0-.38-.602l-4.146-.002c-.441 0-.844.254-1.034.652-.838 1.762-3.14 6.594-3.908 8.21a.374.374 0 0 0 .338.534l4.164.001c.476 0 .91-.273 1.114-.702l3.852-8.091" fill="#FFAB00"/>
    </g>
    <mask id="ldotzdtoxI" style="mask-type:alpha" maskUnits="userSpaceOnUse" x="88" y="61" width="14" height="16">
        <path fill-rule="evenodd" clip-rule="evenodd" d="M88.33 76.725h12.789V61.61H88.33v15.116zm1.556-2.723c-.308-.58-.337-1.39-.213-2.019.225-1.145 1.66-3.821 2.827-4.406l.126.12c-.493 1.071-.907 2.12-.92 3.318-.015 1.436.376 2.863.136 4.297-.745-.292-1.558-.56-1.956-1.31z" fill="#fff"/>
    </mask>
    <g mask="url(#ldotzdtoxI)">
        <path clip-rule="evenodd" d="M99.776 64.198a.421.421 0 0 0-.38-.602l-4.146-.002c-.441 0-.844.254-1.034.652-.838 1.762-3.14 6.594-3.908 8.21a.374.374 0 0 0 .338.534l4.164.001c.476 0 .91-.273 1.114-.702l3.852-8.091z" stroke="#333739" stroke-width=".478" stroke-linecap="round" stroke-linejoin="round"/>
    </g>
    <mask id="y2lhx1qr6J" style="mask-type:alpha" maskUnits="userSpaceOnUse" x="88" y="61" width="14" height="16">
        <path fill-rule="evenodd" clip-rule="evenodd" d="M88.33 76.725h12.789V61.61H88.33m1.556 12.393c-.308-.58-.337-1.39-.213-2.019.225-1.145 1.66-3.821 2.827-4.406l.126.12c-.493 1.071-.907 2.12-.92 3.318-.015 1.436.376 2.863.136 4.297-.745-.292-1.558-.56-1.956-1.31" fill="#fff"/>
    </mask>
    <g mask="url(#y2lhx1qr6J)">
        <path d="m91.61 70.34 2.856-5.98a.886.886 0 0 1 .803-.505c1.255.003 4.18.006 4.18.006" stroke="#FCBC7B" stroke-width=".508" stroke-linecap="round" stroke-linejoin="round"/>
    </g>
    <mask id="t01qn63enK" style="mask-type:alpha" maskUnits="userSpaceOnUse" x="88" y="61" width="14" height="16">
        <path fill-rule="evenodd" clip-rule="evenodd" d="M88.33 76.725h12.789V61.61H88.33m1.556 12.393c-.308-.58-.337-1.39-.213-2.019.225-1.145 1.66-3.821 2.827-4.406l.126.12c-.493 1.071-.907 2.12-.92 3.318-.015 1.436.376 2.863.136 4.297-.745-.292-1.558-.56-1.956-1.31" fill="#fff"/>
    </mask>
    <g mask="url(#t01qn63enK)">
        <path d="M93.916 64.875c.148.35.52.468 1.142.462l4.194-.04" stroke="#333739" stroke-width=".478" stroke-linecap="round" stroke-linejoin="round"/>
    </g>
    <mask id="7z4mi9tmoL" style="mask-type:alpha" maskUnits="userSpaceOnUse" x="88" y="61" width="14" height="16">
        <path fill-rule="evenodd" clip-rule="evenodd" d="M88.33 76.725h12.789V61.61H88.33m1.556 12.393c-.308-.58-.337-1.39-.213-2.019.225-1.145 1.66-3.821 2.827-4.406l.126.12c-.493 1.071-.907 2.12-.92 3.318-.015 1.436.376 2.863.136 4.297-.745-.292-1.558-.56-1.956-1.31" fill="#fff"/>
    </mask>
    <g mask="url(#7z4mi9tmoL)">
        <path fill-rule="evenodd" clip-rule="evenodd" d="M96.444 64.51a.248.248 0 0 0-.248-.275h-.667a.249.249 0 0 0-.248.221l-.002.02a.25.25 0 0 0 .248.275h.667a.25.25 0 0 0 .248-.223l.002-.019" fill="#333739"/>
    </g>
    <mask id="2w09t2e04M" style="mask-type:alpha" maskUnits="userSpaceOnUse" x="88" y="61" width="14" height="16">
        <path fill-rule="evenodd" clip-rule="evenodd" d="M88.33 76.725h12.789V61.61H88.33v15.116zm1.556-2.723c-.308-.58-.337-1.39-.213-2.019.225-1.145 1.66-3.821 2.827-4.406l.126.12c-.493 1.071-.907 2.12-.92 3.318-.015 1.436.376 2.863.136 4.297-.745-.292-1.558-.56-1.956-1.31z" fill="#fff"/>
    </mask>
    <g mask="url(#2w09t2e04M)">
        <path clip-rule="evenodd" d="M96.444 64.51a.248.248 0 0 0-.248-.275h-.667a.249.249 0 0 0-.248.221l-.002.02a.25.25 0 0 0 .248.275h.667a.25.25 0 0 0 .248-.223l.002-.019z" stroke="#333739" stroke-width=".478" stroke-linecap="round" stroke-linejoin="round"/>
    </g>
    <path fill-rule="evenodd" clip-rule="evenodd" d="M93.47 65.527c-.368-.104-.852.025-1.36.342-.576.358-1.179.962-1.689 1.78a8.602 8.602 0 0 0-.856 1.789c-.527 1.534-.53 2.88-1.24 4.536-.234.548-.479 1.205-1.069 1.67-.24.189-.533.352-.908.453a3.266 3.266 0 0 1-.594.1c-.126.009-.259.012-.399.01a.082.082 0 0 1-.005-.164c.134-.01.26-.027.38-.046.204-.031.387-.074.553-.125.34-.102.61-.24.826-.412.555-.44.776-1.064.996-1.58.705-1.651.706-2.992 1.23-4.522.198-.577.47-1.181.88-1.839.532-.854 1.163-1.483 1.765-1.858.651-.406 1.272-.512 1.71-.314.03.014.053.038.065.07.01.03.009.064-.005.094-.246.515-.43.86-.647 1.315a21.62 21.62 0 0 0-.4.885c-.516 1.201-.743 2.151-.828 2.977-.175 1.724.266 2.914.044 4.701a.123.123 0 0 1-.243-.03c.22-1.785-.22-2.974-.044-4.695.086-.846.318-1.819.845-3.049.155-.361.284-.645.404-.895.2-.418.373-.743.59-1.193" fill="#333739"/>
</svg>
